<?xml version="1.0" encoding="UTF-8"?>
<svg version="1.1" xmlns="http://www.w3.org/2000/svg" width="500" height="500">
<path d="M0 0 C165 0 330 0 500 0 C500 165 500 330 500 500 C335 500 170 500 0 500 C0 335 0 170 0 0 Z " fill="#FEFEFE" transform="translate(0,0)"/>
<path d="M0 0 C1.91619896 0.00636726 1.91619896 0.00636726 3.87110901 0.01286316 C7.24638922 0.02676425 10.62104677 0.05365725 13.99615479 0.0869751 C17.44855404 0.11781554 20.90101795 0.13139815 24.35351562 0.14648438 C31.11214951 0.1794955 37.87049198 0.22965214 44.62890625 0.29296875 C44.7379213 3.12736012 44.81668529 5.95747078 44.87890625 8.79296875 C44.91242188 9.58445313 44.9459375 10.3759375 44.98046875 11.19140625 C45.07707213 17.08421218 43.89441136 21.35580107 40.62890625 26.29296875 C34.33253071 32.76424362 26.80946846 33.57914674 18.234375 33.71679688 C15.98178351 33.72597507 13.72917232 33.73112876 11.4765625 33.73242188 C10.39761719 33.75111328 9.31867188 33.76980469 8.20703125 33.7890625 C6.74378418 33.79184204 6.74378418 33.79184204 5.25097656 33.79467773 C2.56828649 34.14339568 2.56828649 34.14339568 0.34277344 35.69946289 C-2.24299761 39.17485394 -2.24299761 39.17485394 -2.37109375 48.29296875 C9.17890625 48.29296875 20.72890625 48.29296875 32.62890625 48.29296875 C32.73203125 51.26296875 32.83515625 54.23296875 32.94140625 57.29296875 C32.98692627 58.21207031 33.03244629 59.13117188 33.0793457 60.078125 C33.19673268 67.14254899 30.97534535 71.66519442 26.22045898 76.81982422 C20.25833011 82.30057595 13.34381127 82.58845935 5.69140625 82.41796875 C4.91216797 82.40894531 4.13292969 82.39992188 3.33007812 82.390625 C1.42955178 82.36730566 -0.47081383 82.33144461 -2.37109375 82.29296875 C-2.31888672 83.21916016 -2.31888672 83.21916016 -2.265625 84.1640625 C-1.98672025 92.88979685 -3.32885754 99.19273561 -8.93359375 106.04296875 C-14.24826055 111.53062652 -19.55355759 115.35174529 -27.40820312 115.48217773 C-28.8438731 115.46944725 -30.27948516 115.44655966 -31.71484375 115.4140625 C-32.4531543 115.40532104 -33.19146484 115.39657959 -33.95214844 115.38757324 C-35.75859675 115.36491956 -37.56488658 115.33017576 -39.37109375 115.29296875 C-39.46396207 103.84431633 -39.53494418 92.39575422 -39.57834244 80.94680119 C-39.59917629 75.63000705 -39.62741715 70.31347151 -39.67285156 64.99682617 C-39.71645917 59.86154593 -39.74026244 54.72651372 -39.75060272 49.59106255 C-39.75796736 47.63632747 -39.77234864 45.68160527 -39.79401398 43.72697639 C-39.82324639 40.97923052 -39.82704151 38.23249663 -39.82519531 35.48461914 C-39.83957642 34.68476089 -39.85395752 33.88490265 -39.86877441 33.06080627 C-39.80536004 24.28174859 -36.19817353 17.47874663 -30.29296875 11.14453125 C-20.78585826 1.98524188 -13.02852138 -0.16367021 0 0 Z " fill="#2DA85F" transform="translate(72.37109375,168.70703125)"/>
<path d="M0 0 C4.29 0 8.58 0 13 0 C21 20 21 20 22.05908203 22.74145508 C22.8022964 24.92922957 22.8022964 24.92922957 24 26 C24.29769287 25.2479126 24.59538574 24.4958252 24.90209961 23.72094727 C26.24456006 20.33373158 27.59097474 16.94810172 28.9375 13.5625 C29.40607422 12.37849609 29.87464844 11.19449219 30.35742188 9.97460938 C31.0293457 8.28754883 31.0293457 8.28754883 31.71484375 6.56640625 C32.12855225 5.52427979 32.54226074 4.48215332 32.96850586 3.40844727 C34 1 34 1 35 0 C39.29 0 43.58 0 48 0 C48 14.19 48 28.38 48 43 C44.7 43 41.4 43 38 43 C37.67 35.08 37.34 27.16 37 19 C35.88625 21.68125 34.7725 24.3625 33.625 27.125 C33.27775879 27.95789551 32.93051758 28.79079102 32.57275391 29.64892578 C30.88790107 33.72348911 29.3308988 37.79220883 28 42 C25.03 42 22.06 42 19 42 C18.76289307 41.37432129 18.52578613 40.74864258 18.28149414 40.10400391 C17.2095788 37.27725731 16.13605953 34.45112254 15.0625 31.625 C14.50272461 30.14773437 14.50272461 30.14773437 13.93164062 28.640625 C13.57392578 27.69960937 13.21621094 26.75859375 12.84765625 25.7890625 C12.51773682 24.91975098 12.18781738 24.05043945 11.84790039 23.15478516 C11.03613248 20.99839517 11.03613248 20.99839517 10 19 C9.67 26.92 9.34 34.84 9 43 C6.03 43 3.06 43 0 43 C0 28.81 0 14.62 0 0 Z " fill="#0D1019" transform="translate(345,202)"/>
<path d="M0 0 C3.3 0 6.6 0 10 0 C10.67548578 2.05962852 11.34004312 4.12284322 12 6.1875 C12.37125 7.33605469 12.7425 8.48460937 13.125 9.66796875 C13.90630553 12.64320812 14.18363306 14.95283896 14 18 C14.66 18 15.32 18 16 18 C16.103125 16.865625 16.20625 15.73125 16.3125 14.5625 C17.70022912 3.29977088 17.70022912 3.29977088 21 0 C23.67058851 -0.14115161 26.32432238 -0.04247107 29 0 C31.86390108 5.85797948 33.0122936 11.57409836 34 18 C34.66 18 35.32 18 36 18 C36.103125 16.700625 36.20625 15.40125 36.3125 14.0625 C36.85263856 9.05827507 38.27717846 4.7190329 40 0 C42.97 0 45.94 0 49 0 C47.24237109 10.38598904 44.00720483 20.26026603 40 30 C37.03 30 34.06 30 31 30 C30.18710947 27.72930578 29.37467262 25.45845099 28.5625 23.1875 C28.33240234 22.54490234 28.10230469 21.90230469 27.86523438 21.24023438 C26.88582149 18.50071717 25.92004638 15.76013914 25 13 C22.85220365 18.62518091 20.87729439 24.27872186 19 30 C15.7 30 12.4 30 9 30 C7.71454512 26.05018918 6.43289614 22.09916619 5.15478516 18.14697266 C4.71931109 16.80223134 4.28279245 15.45782783 3.84521484 14.11376953 C3.21698473 12.18349334 2.59250246 10.25203954 1.96875 8.3203125 C1.59169922 7.15773926 1.21464844 5.99516602 0.82617188 4.79736328 C0 2 0 2 0 0 Z " fill="#0A0C15" transform="translate(229,214)"/>
<path d="M0 0 C3.85544798 1.99657127 5.59805092 3.39707638 8 7 C8.22705078 9.54370117 8.22705078 9.54370117 8.1953125 12.54296875 C8.18886719 13.61611328 8.18242187 14.68925781 8.17578125 15.79492188 C8.15902344 16.91447266 8.14226562 18.03402344 8.125 19.1875 C8.11597656 20.31865234 8.10695313 21.44980469 8.09765625 22.61523438 C8.07406862 25.41036828 8.041153 28.20507845 8 31 C5.36 31 2.72 31 0 31 C-0.33 30.34 -0.66 29.68 -1 29 C-1.474375 29.495 -1.94875 29.99 -2.4375 30.5 C-6.20552978 32.70567597 -9.73266411 32.72952617 -14 32 C-16.50160818 30.12379387 -17.61945652 28.76108697 -19 26 C-19.375 23.1875 -19.375 23.1875 -19 20 C-16.35876871 16.77182842 -13.85139418 14.57170865 -10 13 C-7.640625 12.8046875 -7.640625 12.8046875 -5.25 12.875 C-4.45078125 12.89304688 -3.6515625 12.91109375 -2.828125 12.9296875 C-2.22484375 12.95289063 -1.6215625 12.97609375 -1 13 C-1.66 11.35 -2.32 9.7 -3 8 C-5.41619823 7.74969023 -5.41619823 7.74969023 -8 8 C-8.99 9.485 -8.99 9.485 -10 11 C-11.9453125 11.29296875 -11.9453125 11.29296875 -14.125 11.1875 C-16.043125 11.0946875 -16.043125 11.0946875 -18 11 C-17.51862212 6.6675991 -16.29881816 4.81369784 -13 2 C-8.74748617 -0.83500922 -4.99342406 -0.64456329 0 0 Z " fill="#10121B" transform="translate(299,213)"/>
<path d="M0 0 C8.58 0 17.16 0 26 0 C26 2.64 26 5.28 26 8 C20.72 8 15.44 8 10 8 C10 11.3 10 14.6 10 18 C14.95 18 19.9 18 25 18 C25 20.64 25 23.28 25 26 C20.05 26 15.1 26 10 26 C10 31.28 10 36.56 10 42 C6.7 42 3.4 42 0 42 C0 28.14 0 14.28 0 0 Z " fill="#0A0C15" transform="translate(131,202)"/>
<path d="M0 0 C4.72575195 1.72671706 7.44174836 3.66398027 10 8 C10.49222833 11.94873994 10.37615056 15.84118329 10.25 19.8125 C10.23195313 20.88693359 10.21390625 21.96136719 10.1953125 23.06835938 C10.14829392 25.71315465 10.0825916 28.35611589 10 31 C7.36 31 4.72 31 2 31 C1.67 30.34 1.34 29.68 1 29 C0.34 29.495 -0.32 29.99 -1 30.5 C-4.81270704 32.40635352 -7.8142334 32.88609978 -12 32 C-15 29.9375 -15 29.9375 -17 27 C-17.625 23.5 -17.625 23.5 -17 20 C-14.38242511 16.72803139 -11.86096284 14.58271087 -8 13 C-5.640625 12.8046875 -5.640625 12.8046875 -3.25 12.875 C-2.45078125 12.89304688 -1.6515625 12.91109375 -0.828125 12.9296875 C-0.22484375 12.95289063 0.3784375 12.97609375 1 13 C0.67 11.68 0.34 10.36 0 9 C-2.97 8.505 -2.97 8.505 -6 8 C-6.99 9.485 -6.99 9.485 -8 11 C-9.9453125 11.29296875 -9.9453125 11.29296875 -12.125 11.1875 C-14.043125 11.0946875 -14.043125 11.0946875 -16 11 C-15.58534283 6.16233301 -13.5801385 4.14353624 -10 1 C-6.79821961 -0.60089019 -3.48231013 -0.3573266 0 0 Z " fill="#0F111A" transform="translate(414,213)"/>
<path d="M0 0 C2.89215743 1.38070445 4.5842104 2.78980952 7 5 C8.01973129 8.05919388 8.11533602 10.12418025 8.09765625 13.32421875 C8.09443359 14.35224609 8.09121094 15.38027344 8.08789062 16.43945312 C8.07951172 17.51130859 8.07113281 18.58316406 8.0625 19.6875 C8.05798828 20.77095703 8.05347656 21.85441406 8.04882812 22.97070312 C8.03703743 25.64719085 8.02058063 28.32356777 8 31 C5.69 31 3.38 31 1 31 C1 30.01 1 29.02 1 28 C-0.010625 28.66 -1.02125 29.32 -2.0625 30 C-5.87465285 32.14433598 -8.58803743 32.72195751 -13 32 C-15.77595436 30.61813726 -16.86458828 29.44791099 -19 27 C-19.6875 23.5 -19.6875 23.5 -19 20 C-16.38242511 16.72803139 -13.86096284 14.58271087 -10 13 C-7.640625 12.8046875 -7.640625 12.8046875 -5.25 12.875 C-4.45078125 12.89304688 -3.6515625 12.91109375 -2.828125 12.9296875 C-2.22484375 12.95289063 -1.6215625 12.97609375 -1 13 C-1.66 11.35 -2.32 9.7 -3 8 C-4.98 8 -6.96 8 -9 8 C-9 8.99 -9 9.98 -9 11 C-11.97 11 -14.94 11 -18 11 C-17.88936823 7.23851969 -16.65971443 5.25423069 -14.0625 2.6875 C-9.65092788 -0.80914648 -5.42544004 -1.18057575 0 0 Z " fill="#0F121B" transform="translate(178,213)"/>
<path d="M0 0 C3.98561154 2.62688033 6.23980531 5.28191592 7.75 9.8125 C7.75 12.1225 7.75 14.4325 7.75 16.8125 C1.15 16.8125 -5.45 16.8125 -12.25 16.8125 C-11.92 18.7925 -11.59 20.7725 -11.25 22.8125 C-7.2399066 22.99114631 -7.2399066 22.99114631 -3.25 22.8125 C-2.59 22.1525 -1.93 21.4925 -1.25 20.8125 C1.47869407 20.84537583 4.0466618 21.37647771 6.75 21.8125 C6.41466224 24.94231912 5.74933599 25.81311159 3.375 28 C-1.535193 31.39037135 -6.4603829 31.46180285 -12.25 30.8125 C-16.79646267 28.58060014 -19.02944952 26.31037641 -21.25 21.8125 C-22.08007723 16.36873772 -22.57257716 10.44053358 -20.04296875 5.4140625 C-14.60211252 -1.11496498 -8.04563089 -2.93974975 0 0 Z " fill="#0C0E18" transform="translate(473.25,214.1875)"/>
<path d="M0 0 C3.3 0 6.6 0 10 0 C12.34288124 5.70101102 14.29778781 11.04225734 16 17 C17.98 11.39 19.96 5.78 22 0 C25.3 0 28.6 0 32 0 C31.28668964 4.363781 29.87529893 8.38218811 28.3125 12.5 C28.04775879 13.2019751 27.78301758 13.9039502 27.51025391 14.62719727 C24.98010366 21.23204014 22.0321113 27.61212506 19 34 C17.64951583 36.99273961 16.32404551 39.99543518 15 43 C11.7 43 8.4 43 5 43 C5.37253906 42.20335937 5.74507813 41.40671875 6.12890625 40.5859375 C6.60199219 39.52632812 7.07507813 38.46671875 7.5625 37.375 C8.03816406 36.33085937 8.51382812 35.28671875 9.00390625 34.2109375 C11.03195961 27.67344784 7.99284949 21.94344903 5.5625 15.875 C5.24990234 15.07707031 4.93730469 14.27914062 4.61523438 13.45703125 C2.91776331 9.11970002 2.91776331 9.11970002 0.89428711 4.93017578 C0 3 0 3 0 0 Z " fill="#0B0E17" transform="translate(309,214)"/>
<path d="M0 0 C2.97 0 5.94 0 9 0 C9 2.31 9 4.62 9 7 C11.64 7 14.28 7 17 7 C17 9.31 17 11.62 17 14 C14.36 14 11.72 14 9 14 C9.33 19.28 9.66 24.56 10 30 C12.31 30 14.62 30 17 30 C17 32.31 17 34.62 17 37 C13.54260443 38.72869779 9.78024432 38.48966895 6 38 C3.12970131 36.20606332 1.50868362 35.01736724 0 32 C-0.08308638 30.62451844 -0.10736016 29.24514204 -0.09765625 27.8671875 C-0.09443359 27.06152344 -0.09121094 26.25585938 -0.08789062 25.42578125 C-0.07951172 24.58402344 -0.07113281 23.74226563 -0.0625 22.875 C-0.05798828 22.02550781 -0.05347656 21.17601562 -0.04882812 20.30078125 C-0.03702874 18.20049091 -0.01909306 16.1002367 0 14 C-1.65 14 -3.3 14 -5 14 C-5 11.69 -5 9.38 -5 7 C-3.35 7 -1.7 7 0 7 C0 4.69 0 2.38 0 0 Z " fill="#0A0C15" transform="translate(432,207)"/>
<path d="M0 0 C0.721875 0.103125 1.44375 0.20625 2.1875 0.3125 C2.1875 3.2825 2.1875 6.2525 2.1875 9.3125 C1.07375 9.415625 -0.04 9.51875 -1.1875 9.625 C-2.38375 9.851875 -3.58 10.07875 -4.8125 10.3125 C-6.8265956 13.3336434 -7.08086596 14.11910017 -7.2265625 17.54296875 C-7.28457031 18.74663086 -7.28457031 18.74663086 -7.34375 19.97460938 C-7.39015625 21.22467773 -7.39015625 21.22467773 -7.4375 22.5 C-7.49550781 23.7674707 -7.49550781 23.7674707 -7.5546875 25.06054688 C-7.64886279 27.14417524 -7.73176675 29.22830753 -7.8125 31.3125 C-10.7825 31.3125 -13.7525 31.3125 -16.8125 31.3125 C-16.8125 21.4125 -16.8125 11.5125 -16.8125 1.3125 C-14.1725 1.3125 -11.5325 1.3125 -8.8125 1.3125 C-8.4825 2.6325 -8.1525 3.9525 -7.8125 5.3125 C-7.090625 4.4875 -6.36875 3.6625 -5.625 2.8125 C-2.8125 0.3125 -2.8125 0.3125 0 0 Z " fill="#060812" transform="translate(223.8125,212.6875)"/>
<path d="M0 0 C3.3 0 6.6 0 10 0 C10 10.23 10 20.46 10 31 C6.7 31 3.4 31 0 31 C0 20.77 0 10.54 0 0 Z " fill="#13151E" transform="translate(191,214)"/>
<path d="M0 0 C1.875 1.1875 1.875 1.1875 3 3 C2.75546876 6.34192692 2.39456443 7.60543557 0 10 C-3 10.25 -3 10.25 -6 10 C-8 8 -8 8 -8.3125 5.5625 C-8 3 -8 3 -6.8125 1.1875 C-4.35092224 -0.42525784 -2.88934264 -0.4334014 0 0 Z " fill="#181A22" transform="translate(199,200)"/>
<path d="M0 0 C2.5625 0.3125 2.5625 0.3125 4.375 1.625 C5.5625 3.3125 5.5625 3.3125 5.5625 6.3125 C1.9325 6.3125 -1.6975 6.3125 -5.4375 6.3125 C-3.98716887 0.5111755 -3.98716887 0.5111755 0 0 Z " fill="#E2E2E2" transform="translate(466.4375,219.6875)"/>
<path d="M0 0 C1.670625 0.061875 1.670625 0.061875 3.375 0.125 C2.5 5 2.5 5 1.375 6.125 C-0.62458364 6.16580783 -2.62545254 6.16754356 -4.625 6.125 C-5.25 4.25 -5.25 4.25 -5.625 2.125 C-3.625 0.125 -3.625 0.125 0 0 Z " fill="#EBEBEB" transform="translate(411.625,231.875)"/>
<path d="M0 0 C1.134375 0.020625 2.26875 0.04125 3.4375 0.0625 C2.5625 4.9375 2.5625 4.9375 1.4375 6.0625 C-0.56208364 6.10330783 -2.56295254 6.10504356 -4.5625 6.0625 C-4.605221 4.39638095 -4.60313832 2.72867115 -4.5625 1.0625 C-3.5625 0.0625 -3.5625 0.0625 0 0 Z " fill="#F3F3F3" transform="translate(294.5625,231.9375)"/>
<path d="M0 0 C1.134375 0.020625 2.26875 0.04125 3.4375 0.0625 C3.4375 1.7125 3.4375 3.3625 3.4375 5.0625 C1.1275 5.3925 -1.1825 5.7225 -3.5625 6.0625 C-3.94468767 4.40635343 -4.27645102 2.73792976 -4.5625 1.0625 C-3.5625 0.0625 -3.5625 0.0625 0 0 Z " fill="#F4F4F4" transform="translate(173.5625,231.9375)"/>
<path d="M0 0 C1.99097846 2.98646769 2.94124926 5.59687262 4 9 C3.01 8.67 2.02 8.34 1 8 C1 13.94 1 19.88 1 26 C0.67 26 0.34 26 0 26 C0 17.42 0 8.84 0 0 Z " fill="#D6D7D7" transform="translate(354,218)"/>
</svg>
