<svg xmlns="http://www.w3.org/2000/svg" xmlns:xlink="http://www.w3.org/1999/xlink" width="500" zoomAndPan="magnify" viewBox="0 0 375 374.999991" height="500" preserveAspectRatio="xMidYMid meet" version="1.2"><defs><clipPath id="35a00a7f75"><path d="M 102.039062 142.753906 L 198 142.753906 L 198 190 L 102.039062 190 Z M 102.039062 142.753906 "/></clipPath><clipPath id="338d44dd46"><path d="M 172.3125 140.867188 L 272.8125 140.867188 L 272.8125 189.617188 L 172.3125 189.617188 Z M 172.3125 140.867188 "/></clipPath><clipPath id="0234717253"><path d="M 105.511719 179.890625 L 122.746094 179.890625 L 122.746094 209.777344 L 105.511719 209.777344 Z M 105.511719 179.890625 "/></clipPath><clipPath id="0379f91b9b"><path d="M 114.128906 179.890625 C 109.371094 179.890625 105.511719 186.574219 105.511719 194.820312 C 105.511719 203.0625 109.371094 209.746094 114.128906 209.746094 C 118.886719 209.746094 122.746094 203.0625 122.746094 194.820312 C 122.746094 186.574219 118.886719 179.890625 114.128906 179.890625 Z M 114.128906 179.890625 "/></clipPath><clipPath id="7cc1e2926a"><path d="M 249.449219 179.890625 L 266.683594 179.890625 L 266.683594 209.777344 L 249.449219 209.777344 Z M 249.449219 179.890625 "/></clipPath><clipPath id="6edb44e9f9"><path d="M 258.066406 179.890625 C 253.308594 179.890625 249.449219 186.574219 249.449219 194.820312 C 249.449219 203.0625 253.308594 209.746094 258.066406 209.746094 C 262.824219 209.746094 266.683594 203.0625 266.683594 194.820312 C 266.683594 186.574219 262.824219 179.890625 258.066406 179.890625 Z M 258.066406 179.890625 "/></clipPath><clipPath id="4d5eb501f0"><path d="M 102.554688 161.507812 L 272.53125 161.507812 L 272.53125 293.769531 L 102.554688 293.769531 Z M 102.554688 161.507812 "/></clipPath><clipPath id="2d33a7ef0b"><path d="M 187.5 161.507812 C 140.585938 161.507812 102.554688 191.117188 102.554688 227.636719 C 102.554688 264.160156 140.585938 293.769531 187.5 293.769531 C 234.414062 293.769531 272.445312 264.160156 272.445312 227.636719 C 272.445312 191.117188 234.414062 161.507812 187.5 161.507812 Z M 187.5 161.507812 "/></clipPath><clipPath id="c1d3fcede3"><path d="M 108.316406 165.101562 L 266.816406 165.101562 L 266.816406 296.414062 L 108.316406 296.414062 Z M 108.316406 165.101562 "/></clipPath><clipPath id="64ebb81172"><path d="M 187.5 165.101562 C 143.769531 165.101562 108.316406 194.496094 108.316406 230.757812 C 108.316406 267.019531 143.769531 296.414062 187.5 296.414062 C 231.230469 296.414062 266.683594 267.019531 266.683594 230.757812 C 266.683594 194.496094 231.230469 165.101562 187.5 165.101562 Z M 187.5 165.101562 "/></clipPath><clipPath id="1641144970"><path d="M 142 114 L 237.132812 114 L 237.132812 263.929688 L 142 263.929688 Z M 142 114 "/></clipPath><clipPath id="e3f9367f66"><path d="M 138 114 L 233.195312 114 L 233.195312 263.929688 L 138 263.929688 Z M 138 114 "/></clipPath><clipPath id="c02ae2df12"><path d="M 140 113 L 235.097656 113 L 235.097656 262.9375 L 140 262.9375 Z M 140 113 "/></clipPath><clipPath id="165568dd4f"><path d="M 102.121094 183.015625 L 272.578125 183.015625 L 272.578125 293.769531 L 102.121094 293.769531 Z M 102.121094 183.015625 "/></clipPath><clipPath id="6105ed10ca"><path d="M 187.5 183.015625 C 140.585938 183.015625 102.554688 207.808594 102.554688 238.390625 C 102.554688 268.976562 140.585938 293.769531 187.5 293.769531 C 234.414062 293.769531 272.445312 268.976562 272.445312 238.390625 C 272.445312 207.808594 234.414062 183.015625 187.5 183.015625 Z M 187.5 183.015625 "/></clipPath><clipPath id="bc580004c3"><path d="M 95.320312 188.929688 L 279.980469 188.929688 L 279.980469 320.242188 L 95.320312 320.242188 Z M 95.320312 188.929688 "/></clipPath><clipPath id="cf99b8c7fe"><path d="M 187.5 188.929688 C 136.589844 188.929688 95.320312 218.324219 95.320312 254.585938 C 95.320312 290.847656 136.589844 320.242188 187.5 320.242188 C 238.410156 320.242188 279.679688 290.847656 279.679688 254.585938 C 279.679688 218.324219 238.410156 188.929688 187.5 188.929688 Z M 187.5 188.929688 "/></clipPath><clipPath id="50cb13c5ef"><path d="M 80.070312 199.207031 L 295 199.207031 L 295 326.714844 L 80.070312 326.714844 Z M 80.070312 199.207031 "/></clipPath><clipPath id="a8dc6fca0f"><path d="M 187.5 199.207031 C 128.167969 199.207031 80.070312 227.75 80.070312 262.960938 C 80.070312 298.171875 128.167969 326.714844 187.5 326.714844 C 246.832031 326.714844 294.929688 298.171875 294.929688 262.960938 C 294.929688 227.75 246.832031 199.207031 187.5 199.207031 Z M 187.5 199.207031 "/></clipPath><clipPath id="5d115bcba1"><path d="M 84.199219 81.910156 L 290.449219 81.910156 L 290.449219 288.160156 L 84.199219 288.160156 Z M 84.199219 81.910156 "/></clipPath><clipPath id="9e3307845b"><path d="M 187.324219 81.910156 C 130.371094 81.910156 84.199219 128.082031 84.199219 185.035156 C 84.199219 241.988281 130.371094 288.160156 187.324219 288.160156 C 244.277344 288.160156 290.449219 241.988281 290.449219 185.035156 C 290.449219 128.082031 244.277344 81.910156 187.324219 81.910156 Z M 187.324219 81.910156 "/></clipPath><clipPath id="e37bd2dff6"><path d="M 166.917969 209.746094 L 208.152344 209.746094 L 208.152344 250.980469 L 166.917969 250.980469 Z M 166.917969 209.746094 "/></clipPath><clipPath id="5dcffdc54a"><path d="M 187.535156 209.746094 C 176.148438 209.746094 166.917969 218.976562 166.917969 230.363281 C 166.917969 241.75 176.148438 250.980469 187.535156 250.980469 C 198.921875 250.980469 208.152344 241.75 208.152344 230.363281 C 208.152344 218.976562 198.921875 209.746094 187.535156 209.746094 Z M 187.535156 209.746094 "/></clipPath><clipPath id="1cd2bd6351"><path d="M 105.511719 103.015625 L 269.550781 103.015625 L 269.550781 267.054688 L 105.511719 267.054688 Z M 105.511719 103.015625 "/></clipPath><clipPath id="b9029d53b1"><path d="M 187.53125 103.015625 C 142.234375 103.015625 105.511719 139.734375 105.511719 185.035156 C 105.511719 230.332031 142.234375 267.054688 187.53125 267.054688 C 232.832031 267.054688 269.550781 230.332031 269.550781 185.035156 C 269.550781 139.734375 232.832031 103.015625 187.53125 103.015625 Z M 187.53125 103.015625 "/></clipPath><clipPath id="a8bdc5c380"><path d="M 102.039062 99.542969 L 272.957031 99.542969 L 272.957031 270.460938 L 102.039062 270.460938 Z M 102.039062 99.542969 "/></clipPath><clipPath id="722d362d77"><path d="M 187.5 99.542969 C 140.300781 99.542969 102.039062 137.804688 102.039062 185 C 102.039062 232.199219 140.300781 270.460938 187.5 270.460938 C 234.695312 270.460938 272.957031 232.199219 272.957031 185 C 272.957031 137.804688 234.695312 99.542969 187.5 99.542969 Z M 187.5 99.542969 "/></clipPath><clipPath id="6844a38987"><path d="M 168.898438 211.722656 L 206.398438 211.722656 L 206.398438 249 L 168.898438 249 Z M 168.898438 211.722656 "/></clipPath><clipPath id="36688c3e8b"><path d="M 168.898438 214 L 206 214 L 206 249 L 168.898438 249 Z M 168.898438 214 "/></clipPath><clipPath id="556d1ee641"><path d="M 137.945312 217.335938 L 159.601562 217.335938 L 159.601562 237.941406 L 137.945312 237.941406 Z M 137.945312 217.335938 "/></clipPath><clipPath id="abb682a34c"><path d="M 148.757812 217.335938 L 151.308594 225.207031 L 159.566406 225.207031 L 152.886719 230.070312 L 155.4375 237.941406 L 148.757812 233.078125 L 142.074219 237.941406 L 144.628906 230.070312 L 137.945312 225.207031 L 146.203125 225.207031 Z M 148.757812 217.335938 "/></clipPath><clipPath id="b37d70a844"><path d="M 217.152344 217.335938 L 238.804688 217.335938 L 238.804688 237.941406 L 217.152344 237.941406 Z M 217.152344 217.335938 "/></clipPath><clipPath id="ab3649a255"><path d="M 227.960938 217.335938 L 230.515625 225.207031 L 238.773438 225.207031 L 232.089844 230.070312 L 234.644531 237.941406 L 227.960938 233.078125 L 221.28125 237.941406 L 223.832031 230.070312 L 217.152344 225.207031 L 225.410156 225.207031 Z M 227.960938 217.335938 "/></clipPath></defs><g id="69be22a27f"><g clip-rule="nonzero" clip-path="url(#35a00a7f75)"><path style=" stroke:none;fill-rule:nonzero;fill:#000000;fill-opacity:1;" d="M 197.957031 189.691406 L 102.125 189.691406 C 104.910156 185.570312 107.671875 181.371094 110.800781 177.578125 C 114.027344 173.667969 119.203125 172.296875 122.734375 168.257812 C 125.683594 164.875 128.894531 161.132812 133.328125 160.445312 C 134.914062 160.195312 136.675781 160.332031 137.964844 159.375 C 138.847656 158.71875 139.332031 157.671875 139.804688 156.675781 C 142 152.066406 144.734375 147.714844 147.929688 143.734375 C 148.183594 143.421875 148.449219 143.101562 148.816406 142.9375 C 149.230469 142.746094 149.714844 142.785156 150.167969 142.851562 C 154.167969 143.441406 157.050781 145.882812 159.277344 149.09375 C 161.917969 152.910156 164.96875 156.117188 168.332031 159.371094 C 172.523438 163.425781 177.417969 166.476562 181.296875 170.828125 C 186.402344 176.546875 191.503906 182.261719 196.601562 187.980469 C 197.082031 188.519531 197.574219 189.078125 197.957031 189.691406 Z M 197.957031 189.691406 "/></g><g clip-rule="nonzero" clip-path="url(#338d44dd46)"><path style=" stroke:none;fill-rule:nonzero;fill:#000000;fill-opacity:1;" d="M 272.742188 189.609375 L 172.386719 189.609375 C 175.308594 185.332031 178.199219 180.96875 181.476562 177.03125 C 184.855469 172.96875 190.273438 171.546875 193.96875 167.347656 C 197.058594 163.839844 200.421875 159.953125 205.0625 159.238281 C 206.726562 158.980469 208.570312 159.121094 209.921875 158.125 C 210.847656 157.445312 211.351562 156.355469 211.847656 155.324219 C 214.144531 150.535156 217.007812 146.015625 220.355469 141.882812 C 220.621094 141.558594 220.898438 141.226562 221.28125 141.054688 C 221.71875 140.855469 222.222656 140.894531 222.699219 140.964844 C 226.886719 141.578125 229.90625 144.113281 232.238281 147.449219 C 235.003906 151.410156 238.195312 154.742188 241.722656 158.121094 C 246.109375 162.332031 251.234375 165.503906 255.296875 170.019531 C 260.640625 175.960938 265.980469 181.894531 271.324219 187.832031 C 271.828125 188.394531 272.339844 188.972656 272.742188 189.609375 Z M 272.742188 189.609375 "/></g><g clip-rule="nonzero" clip-path="url(#0234717253)"><g clip-rule="nonzero" clip-path="url(#0379f91b9b)"><path style=" stroke:none;fill-rule:nonzero;fill:#000000;fill-opacity:1;" d="M 105.511719 179.890625 L 122.746094 179.890625 L 122.746094 209.777344 L 105.511719 209.777344 Z M 105.511719 179.890625 "/></g></g><g clip-rule="nonzero" clip-path="url(#7cc1e2926a)"><g clip-rule="nonzero" clip-path="url(#6edb44e9f9)"><path style=" stroke:none;fill-rule:nonzero;fill:#000000;fill-opacity:1;" d="M 249.449219 179.890625 L 266.683594 179.890625 L 266.683594 209.777344 L 249.449219 209.777344 Z M 249.449219 179.890625 "/></g></g><path style="fill:none;stroke-width:4;stroke-linecap:butt;stroke-linejoin:miter;stroke:#000000;stroke-opacity:1;stroke-miterlimit:4;" d="M 0.001356 2.000538 L 200.016993 2.000538 " transform="matrix(0.749941,-0.000000000000000186,0.000000000000000186,0.749941,111.506796,181.515338)"/><g clip-rule="nonzero" clip-path="url(#4d5eb501f0)"><g clip-rule="nonzero" clip-path="url(#2d33a7ef0b)"><path style=" stroke:none;fill-rule:nonzero;fill:#ffffff;fill-opacity:1;" d="M 102.554688 161.507812 L 272.53125 161.507812 L 272.53125 293.769531 L 102.554688 293.769531 Z M 102.554688 161.507812 "/></g></g><g clip-rule="nonzero" clip-path="url(#c1d3fcede3)"><g clip-rule="nonzero" clip-path="url(#64ebb81172)"><path style=" stroke:none;fill-rule:nonzero;fill:#000000;fill-opacity:1;" d="M 108.316406 165.101562 L 266.816406 165.101562 L 266.816406 296.414062 L 108.316406 296.414062 Z M 108.316406 165.101562 "/></g></g><g clip-rule="nonzero" clip-path="url(#1641144970)"><path style=" stroke:none;fill-rule:nonzero;fill:#ffffff;fill-opacity:1;" d="M 192.523438 206.039062 C 192.234375 206.90625 191.917969 207.769531 191.652344 208.644531 C 191.117188 210.394531 190.660156 212.164062 189.574219 213.695312 C 189.046875 214.4375 189.152344 215.296875 189.582031 216.058594 C 190.363281 217.4375 190.332031 218.828125 190.042969 220.359375 C 189.109375 225.246094 188.433594 230.167969 188.007812 235.121094 C 187.816406 237.464844 187.765625 239.808594 187.855469 242.15625 C 187.898438 243.414062 187.652344 244.566406 186.9375 245.59375 C 186.226562 246.609375 186.179688 247.609375 186.800781 248.691406 C 188.050781 250.863281 187.847656 253.304688 187.980469 255.664062 C 188.066406 257.242188 188.097656 258.839844 187.863281 260.421875 C 187.835938 260.628906 187.835938 260.835938 187.859375 261.042969 C 188.042969 262.945312 187.765625 263.359375 185.890625 263.554688 C 184.101562 263.746094 182.308594 263.792969 180.511719 263.703125 C 180.304688 263.691406 180.066406 263.691406 179.90625 263.585938 C 178.324219 262.535156 176.785156 263.011719 175.230469 263.65625 C 174.925781 263.785156 174.554688 263.78125 174.214844 263.78125 C 171.519531 263.78125 168.828125 263.757812 166.132812 263.75 C 165.128906 263.75 164.167969 263.675781 163.21875 263.226562 C 162.144531 262.714844 161.589844 262.070312 161.699219 261.058594 C 161.816406 259.960938 162.585938 259.097656 163.660156 258.945312 C 164.480469 258.828125 165.308594 258.757812 166.136719 258.734375 C 168.917969 258.667969 171.050781 257.195312 172.84375 255.328125 C 173.472656 254.671875 173.605469 253.347656 173.613281 252.324219 C 173.648438 247.976562 174.59375 243.757812 175.199219 239.488281 C 175.394531 238.191406 175.5 236.882812 175.515625 235.570312 C 175.546875 230.359375 175.222656 225.125 175.78125 219.9375 C 176.472656 213.496094 176.21875 207.046875 176.414062 200.597656 C 176.542969 196.414062 177.445312 192.316406 178.554688 188.277344 C 178.746094 187.566406 178.96875 186.886719 178.359375 186.246094 C 176.378906 184.167969 176.832031 182.347656 178.6875 180.101562 C 179.015625 179.707031 179.4375 179.386719 179.769531 178.992188 C 180.222656 178.449219 180.445312 177.851562 180.386719 177.089844 C 180.324219 176.175781 179.734375 176.050781 179.054688 175.804688 C 177.675781 175.3125 176.910156 174 177.070312 172.511719 C 177.171875 171.550781 177.167969 170.585938 177.0625 169.625 C 176.953125 168.640625 176.894531 167.703125 175.816406 167.207031 C 175.441406 167.035156 175.355469 166.542969 175.183594 166.164062 C 174.59375 164.878906 174.132812 163.546875 173.445312 162.296875 C 172.308594 160.230469 170.359375 159.015625 168.746094 157.4375 C 165.546875 154.3125 163.726562 150.515625 164.148438 145.949219 C 164.257812 144.757812 164.40625 143.792969 163.476562 142.863281 C 162.96875 142.355469 163.417969 142.019531 163.96875 141.859375 C 165.929688 141.296875 165.929688 141.296875 164.722656 139.667969 C 164.351562 139.171875 163.976562 138.675781 163.613281 138.171875 C 163.25 137.667969 162.882812 137.3125 162.148438 137.234375 C 161 137.109375 159.019531 134.476562 159.082031 133.296875 C 159.113281 132.65625 158.886719 132.546875 158.363281 132.742188 C 155.589844 133.792969 152.8125 134.847656 150.039062 135.90625 C 149.472656 136.121094 149.199219 136.59375 148.964844 137.105469 C 148.253906 138.640625 147.636719 140.21875 146.6875 141.632812 C 145.796875 142.957031 144.699219 143.132812 143.472656 142.09375 C 142.199219 141.023438 141.886719 139.625 142.273438 138.0625 C 142.644531 136.558594 143.523438 135.539062 145.152344 135.339844 C 145.796875 135.257812 146.453125 135.148438 147.105469 135.148438 C 148.851562 135.144531 150.378906 134.375 151.957031 133.792969 C 153.769531 133.125 155.554688 132.371094 157.378906 131.730469 C 158.195312 131.441406 158.347656 131.054688 158.074219 130.261719 C 157.738281 129.285156 157.457031 128.28125 157.480469 127.226562 C 157.53125 124.96875 158.460938 123.171875 160.355469 121.910156 C 160.703125 121.675781 161.039062 121.449219 161.28125 121.097656 C 161.441406 120.863281 161.667969 120.640625 161.949219 120.648438 C 163.695312 120.707031 165.402344 120.113281 167.1875 120.492188 C 169.4375 120.96875 170.585938 122.605469 171.671875 124.347656 C 172.488281 125.664062 172.464844 125.699219 173.953125 125.164062 C 178.828125 123.410156 183.730469 121.730469 188.542969 119.824219 C 190.105469 119.207031 191.640625 118.515625 193.238281 117.980469 C 193.683594 117.832031 193.855469 117.707031 193.523438 117.199219 C 192.902344 116.242188 193.035156 115.992188 194.183594 115.691406 C 194.535156 115.601562 194.726562 115.433594 194.777344 115.082031 C 194.855469 114.546875 195.132812 114.191406 195.695312 114.113281 C 196.199219 114.050781 196.578125 114.246094 196.8125 114.6875 C 197.136719 115.300781 197.417969 115.269531 197.875 114.765625 C 198.539062 114.042969 199.375 113.925781 200.203125 114.496094 C 200.617188 114.78125 200.972656 114.738281 201.445312 114.683594 C 202.597656 114.542969 203.824219 114.144531 204.867188 115.074219 C 205.214844 115.386719 205.640625 115.292969 206.054688 115.289062 C 207.644531 115.273438 208.28125 116 207.925781 117.550781 C 207.804688 118.085938 208.054688 118.363281 208.375 118.601562 C 209.457031 119.414062 209.734375 120.484375 209.617188 121.78125 C 209.347656 124.800781 210.027344 127.761719 210.300781 130.746094 C 210.753906 135.625 210.121094 140.390625 208.886719 145.097656 C 208.476562 146.671875 207.324219 147.332031 205.851562 147.492188 C 203.519531 147.742188 201.179688 147.910156 198.839844 148.117188 C 198.121094 148.183594 197.402344 148.277344 196.679688 148.328125 C 195.8125 148.386719 195.761719 148.816406 196.183594 149.417969 C 198.363281 152.53125 200.019531 155.957031 202.003906 159.1875 C 203.628906 161.839844 204.304688 164.875 205.523438 167.691406 C 205.789062 168.300781 205.648438 168.890625 205.238281 169.441406 C 204.558594 170.34375 204.582031 171.054688 205.386719 171.863281 C 205.976562 172.457031 206.367188 173.101562 206.472656 173.921875 C 206.542969 174.480469 207.015625 174.792969 207.277344 175.230469 C 209.457031 178.847656 210.265625 182.875 210.539062 186.996094 C 210.652344 188.71875 210.109375 190.476562 209.945312 192.222656 C 209.5625 196.246094 209.289062 200.273438 209.1875 204.3125 C 209.128906 206.527344 208.980469 208.726562 208.476562 210.886719 C 208.269531 211.765625 208.449219 212.460938 209.132812 213.015625 C 210.003906 213.710938 210.453125 214.582031 210.40625 215.707031 C 210.375 216.460938 210.707031 217.101562 211.332031 217.460938 C 214.890625 219.507812 216.792969 222.933594 218.796875 226.289062 C 220.335938 228.871094 221.894531 231.433594 223.445312 234.007812 C 223.734375 234.492188 224.070312 234.96875 224.578125 235.1875 C 226.449219 235.996094 227.890625 237.425781 229.578125 238.492188 C 231.339844 239.609375 233.25 240.339844 235.308594 240.6875 C 236.59375 240.902344 237.078125 241.585938 237.050781 242.855469 C 237.03125 243.773438 237.132812 244.628906 236.058594 245.015625 C 236.007812 245.035156 235.988281 245.128906 235.953125 245.191406 C 235.195312 246.421875 235.277344 247.945312 234.167969 249.15625 C 233.171875 250.242188 233.519531 252.058594 233.210938 253.535156 C 232.882812 255.109375 232.855469 256.804688 231.617188 258.078125 C 231.335938 258.363281 231.175781 258.773438 231.128906 259.203125 C 231.109375 259.402344 231.101562 259.707031 230.980469 259.78125 C 229.796875 260.46875 229.417969 261.878906 228.46875 262.660156 C 227.832031 263.183594 226.863281 263.679688 225.886719 263.769531 C 224.984375 263.851562 224.082031 263.816406 223.285156 263.304688 C 222.59375 262.863281 222.402344 262.179688 222.507812 261.40625 C 222.632812 260.488281 223.054688 259.699219 223.675781 259.027344 C 224 258.683594 224.152344 258.351562 224.144531 257.839844 C 224.09375 254.96875 223.332031 252.199219 222.953125 249.375 C 222.902344 249.011719 222.953125 248.53125 222.558594 248.363281 C 222.132812 248.183594 221.894531 248.621094 221.628906 248.871094 C 220.5625 249.855469 219.679688 249.78125 218.722656 248.707031 C 213.464844 242.789062 208.785156 236.414062 204.035156 230.097656 C 202.5 228.054688 201.058594 225.929688 199.382812 224.007812 C 197.203125 221.503906 196.058594 218.574219 195.210938 215.441406 C 194.367188 212.308594 193.371094 209.234375 192.523438 206.039062 Z M 189.769531 135.425781 C 190.203125 135.496094 190.59375 135.390625 190.933594 135.113281 C 194.570312 132.214844 198.402344 129.539062 201.171875 125.679688 C 202.96875 123.179688 202.835938 123.601562 200.25 122.964844 C 198.886719 122.628906 197.679688 122.273438 196.792969 120.984375 C 196.230469 120.167969 195.472656 119.179688 194.054688 119.675781 C 187.605469 121.9375 181.140625 124.152344 174.675781 126.371094 C 174.230469 126.523438 173.96875 126.675781 174.335938 127.152344 C 174.800781 127.753906 174.835938 128.492188 174.992188 129.199219 C 175.21875 130.226562 174.84375 131.277344 174.992188 132.234375 C 175.1875 133.535156 175.785156 134.796875 176.5 135.949219 C 176.933594 136.644531 177.492188 136.859375 178.246094 136.359375 C 179.042969 135.824219 179.949219 135.617188 180.902344 135.640625 C 181.949219 135.675781 182.964844 135.515625 183.949219 135.164062 C 184.773438 134.867188 185.578125 134.890625 186.292969 135.480469 C 186.550781 135.691406 186.820312 135.832031 187.144531 135.65625 C 187.984375 135.203125 188.867188 135.242188 189.769531 135.425781 Z M 189.769531 135.425781 "/></g><g clip-rule="nonzero" clip-path="url(#e3f9367f66)"><path style=" stroke:none;fill-rule:nonzero;fill:#ffffff;fill-opacity:1;" d="M 188.585938 206.039062 C 188.292969 206.90625 187.980469 207.769531 187.710938 208.644531 C 187.175781 210.394531 186.71875 212.164062 185.632812 213.695312 C 185.105469 214.4375 185.214844 215.296875 185.644531 216.058594 C 186.425781 217.4375 186.394531 218.828125 186.105469 220.359375 C 185.171875 225.246094 184.492188 230.167969 184.070312 235.121094 C 183.875 237.464844 183.824219 239.808594 183.917969 242.15625 C 183.960938 243.414062 183.714844 244.566406 183 245.59375 C 182.289062 246.609375 182.238281 247.609375 182.863281 248.691406 C 184.109375 250.863281 183.910156 253.304688 184.039062 255.664062 C 184.128906 257.242188 184.160156 258.839844 183.921875 260.421875 C 183.898438 260.628906 183.894531 260.835938 183.917969 261.042969 C 184.101562 262.945312 183.828125 263.359375 181.949219 263.554688 C 180.160156 263.746094 178.367188 263.792969 176.574219 263.703125 C 176.367188 263.691406 176.125 263.691406 175.96875 263.585938 C 174.386719 262.535156 172.847656 263.011719 171.289062 263.65625 C 170.984375 263.785156 170.617188 263.78125 170.273438 263.78125 C 167.582031 263.78125 164.886719 263.757812 162.195312 263.75 C 161.1875 263.75 160.226562 263.675781 159.277344 263.226562 C 158.207031 262.714844 157.652344 262.070312 157.761719 261.058594 C 157.878906 259.960938 158.644531 259.097656 159.722656 258.945312 C 160.542969 258.828125 161.367188 258.757812 162.195312 258.734375 C 164.980469 258.667969 167.109375 257.195312 168.902344 255.328125 C 169.53125 254.671875 169.667969 253.347656 169.675781 252.324219 C 169.710938 247.976562 170.65625 243.757812 171.261719 239.488281 C 171.453125 238.191406 171.558594 236.882812 171.578125 235.570312 C 171.609375 230.359375 171.285156 225.125 171.839844 219.9375 C 172.53125 213.496094 172.28125 207.046875 172.476562 200.597656 C 172.605469 196.414062 173.507812 192.316406 174.613281 188.277344 C 174.808594 187.566406 175.03125 186.886719 174.421875 186.246094 C 172.4375 184.167969 172.890625 182.347656 174.746094 180.101562 C 175.078125 179.707031 175.5 179.386719 175.832031 178.992188 C 176.28125 178.449219 176.507812 177.851562 176.449219 177.089844 C 176.382812 176.175781 175.796875 176.050781 175.117188 175.804688 C 173.738281 175.3125 172.972656 174 173.132812 172.511719 C 173.234375 171.550781 173.230469 170.585938 173.121094 169.625 C 173.015625 168.640625 172.957031 167.703125 171.878906 167.207031 C 171.5 167.035156 171.417969 166.542969 171.246094 166.164062 C 170.65625 164.878906 170.195312 163.546875 169.507812 162.296875 C 168.371094 160.230469 166.417969 159.015625 164.804688 157.4375 C 161.609375 154.3125 159.785156 150.515625 160.210938 145.949219 C 160.320312 144.757812 160.46875 143.792969 159.535156 142.863281 C 159.027344 142.355469 159.480469 142.019531 160.03125 141.859375 C 161.992188 141.296875 161.992188 141.296875 160.78125 139.667969 C 160.410156 139.171875 160.039062 138.675781 159.671875 138.171875 C 159.308594 137.667969 158.945312 137.3125 158.210938 137.234375 C 157.0625 137.109375 155.082031 134.476562 155.140625 133.296875 C 155.171875 132.65625 154.949219 132.546875 154.425781 132.742188 C 151.648438 133.792969 148.875 134.847656 146.097656 135.90625 C 145.535156 136.121094 145.257812 136.59375 145.023438 137.105469 C 144.3125 138.640625 143.699219 140.21875 142.746094 141.632812 C 141.859375 142.957031 140.761719 143.132812 139.535156 142.09375 C 138.261719 141.023438 137.949219 139.625 138.332031 138.0625 C 138.707031 136.558594 139.585938 135.539062 141.210938 135.339844 C 141.859375 135.257812 142.515625 135.148438 143.167969 135.148438 C 144.914062 135.144531 146.441406 134.375 148.015625 133.792969 C 149.832031 133.125 151.613281 132.371094 153.441406 131.730469 C 154.253906 131.441406 154.40625 131.054688 154.136719 130.261719 C 153.800781 129.285156 153.519531 128.28125 153.542969 127.226562 C 153.59375 124.96875 154.523438 123.171875 156.417969 121.910156 C 156.765625 121.675781 157.101562 121.449219 157.34375 121.097656 C 157.503906 120.863281 157.730469 120.640625 158.007812 120.648438 C 159.757812 120.707031 161.464844 120.113281 163.25 120.492188 C 165.5 120.96875 166.648438 122.605469 167.734375 124.347656 C 168.550781 125.664062 168.523438 125.699219 170.015625 125.164062 C 174.886719 123.410156 179.789062 121.730469 184.605469 119.824219 C 186.164062 119.207031 187.703125 118.515625 189.300781 117.980469 C 189.746094 117.832031 189.914062 117.707031 189.585938 117.199219 C 188.964844 116.242188 189.097656 115.992188 190.246094 115.691406 C 190.597656 115.601562 190.789062 115.433594 190.839844 115.082031 C 190.917969 114.546875 191.195312 114.191406 191.757812 114.113281 C 192.261719 114.050781 192.640625 114.246094 192.875 114.6875 C 193.195312 115.300781 193.476562 115.269531 193.9375 114.765625 C 194.597656 114.042969 195.4375 113.925781 196.265625 114.496094 C 196.679688 114.78125 197.03125 114.738281 197.507812 114.683594 C 198.660156 114.542969 199.882812 114.144531 200.929688 115.074219 C 201.277344 115.386719 201.703125 115.292969 202.117188 115.289062 C 203.707031 115.273438 204.34375 116 203.988281 117.550781 C 203.867188 118.085938 204.117188 118.363281 204.433594 118.601562 C 205.519531 119.414062 205.796875 120.484375 205.679688 121.78125 C 205.410156 124.800781 206.089844 127.761719 206.363281 130.746094 C 206.816406 135.625 206.183594 140.390625 204.949219 145.097656 C 204.539062 146.671875 203.382812 147.332031 201.914062 147.492188 C 199.582031 147.742188 197.238281 147.910156 194.902344 148.117188 C 194.179688 148.183594 193.460938 148.277344 192.738281 148.328125 C 191.875 148.386719 191.824219 148.816406 192.242188 149.417969 C 194.425781 152.53125 196.082031 155.957031 198.066406 159.1875 C 199.691406 161.839844 200.367188 164.875 201.585938 167.691406 C 201.851562 168.300781 201.710938 168.890625 201.296875 169.441406 C 200.621094 170.34375 200.640625 171.054688 201.449219 171.863281 C 202.039062 172.457031 202.429688 173.101562 202.535156 173.921875 C 202.605469 174.480469 203.074219 174.792969 203.339844 175.230469 C 205.515625 178.847656 206.328125 182.875 206.597656 186.996094 C 206.710938 188.71875 206.171875 190.476562 206.007812 192.222656 C 205.625 196.246094 205.347656 200.273438 205.246094 204.3125 C 205.191406 206.527344 205.042969 208.726562 204.539062 210.886719 C 204.332031 211.765625 204.507812 212.460938 205.195312 213.015625 C 206.066406 213.710938 206.515625 214.582031 206.46875 215.707031 C 206.4375 216.460938 206.765625 217.101562 207.394531 217.460938 C 210.953125 219.507812 212.855469 222.933594 214.855469 226.289062 C 216.394531 228.871094 217.957031 231.433594 219.503906 234.007812 C 219.792969 234.492188 220.132812 234.96875 220.640625 235.1875 C 222.507812 235.996094 223.953125 237.425781 225.640625 238.492188 C 227.402344 239.609375 229.3125 240.339844 231.371094 240.6875 C 232.652344 240.902344 233.136719 241.585938 233.113281 242.855469 C 233.09375 243.773438 233.195312 244.628906 232.121094 245.015625 C 232.070312 245.035156 232.050781 245.128906 232.011719 245.191406 C 231.257812 246.421875 231.339844 247.945312 230.230469 249.15625 C 229.234375 250.242188 229.582031 252.058594 229.273438 253.535156 C 228.945312 255.109375 228.917969 256.804688 227.675781 258.078125 C 227.398438 258.363281 227.234375 258.773438 227.191406 259.203125 C 227.171875 259.402344 227.164062 259.707031 227.042969 259.78125 C 225.859375 260.46875 225.480469 261.878906 224.53125 262.660156 C 223.894531 263.183594 222.925781 263.679688 221.949219 263.769531 C 221.046875 263.851562 220.140625 263.816406 219.34375 263.304688 C 218.65625 262.863281 218.464844 262.179688 218.570312 261.40625 C 218.695312 260.488281 219.113281 259.699219 219.738281 259.027344 C 220.0625 258.683594 220.214844 258.351562 220.207031 257.839844 C 220.15625 254.96875 219.394531 252.199219 219.011719 249.375 C 218.964844 249.011719 219.011719 248.53125 218.621094 248.363281 C 218.195312 248.183594 217.957031 248.621094 217.691406 248.871094 C 216.625 249.855469 215.742188 249.78125 214.785156 248.707031 C 209.523438 242.789062 204.847656 236.414062 200.097656 230.097656 C 198.5625 228.054688 197.117188 225.929688 195.445312 224.007812 C 193.265625 221.503906 192.117188 218.574219 191.273438 215.441406 C 190.425781 212.308594 189.433594 209.234375 188.585938 206.039062 Z M 185.828125 135.425781 C 186.265625 135.496094 186.652344 135.390625 186.996094 135.113281 C 190.632812 132.214844 194.464844 129.539062 197.234375 125.679688 C 199.027344 123.179688 198.898438 123.601562 196.3125 122.964844 C 194.945312 122.628906 193.742188 122.273438 192.855469 120.984375 C 192.292969 120.167969 191.535156 119.179688 190.117188 119.675781 C 183.667969 121.9375 177.199219 124.152344 170.738281 126.371094 C 170.292969 126.523438 170.03125 126.675781 170.398438 127.152344 C 170.859375 127.753906 170.894531 128.492188 171.050781 129.199219 C 171.277344 130.226562 170.902344 131.277344 171.050781 132.234375 C 171.25 133.535156 171.84375 134.796875 172.5625 135.949219 C 172.996094 136.644531 173.554688 136.859375 174.304688 136.359375 C 175.105469 135.824219 176.007812 135.617188 176.964844 135.640625 C 178.007812 135.675781 179.023438 135.515625 180.007812 135.164062 C 180.835938 134.867188 181.640625 134.890625 182.355469 135.480469 C 182.613281 135.691406 182.878906 135.832031 183.203125 135.65625 C 184.046875 135.203125 184.929688 135.242188 185.828125 135.425781 Z M 185.828125 135.425781 "/></g><g clip-rule="nonzero" clip-path="url(#c02ae2df12)"><path style=" stroke:none;fill-rule:nonzero;fill:#000000;fill-opacity:1;" d="M 190.488281 205.089844 C 190.195312 205.960938 189.882812 206.824219 189.613281 207.699219 C 189.078125 209.449219 188.621094 211.21875 187.535156 212.75 C 187.007812 213.496094 187.113281 214.351562 187.546875 215.117188 C 188.324219 216.496094 188.292969 217.886719 188.003906 219.417969 C 187.074219 224.308594 186.394531 229.230469 185.96875 234.1875 C 185.777344 236.53125 185.726562 238.878906 185.816406 241.226562 C 185.859375 242.484375 185.613281 243.636719 184.898438 244.664062 C 184.191406 245.679688 184.140625 246.683594 184.761719 247.765625 C 186.011719 249.9375 185.808594 252.378906 185.941406 254.742188 C 186.03125 256.320312 186.058594 257.917969 185.824219 259.5 C 185.796875 259.707031 185.796875 259.914062 185.820312 260.121094 C 186.003906 262.023438 185.730469 262.4375 183.851562 262.636719 C 182.0625 262.824219 180.269531 262.875 178.472656 262.78125 C 178.269531 262.773438 178.027344 262.769531 177.867188 262.664062 C 176.285156 261.617188 174.746094 262.09375 173.191406 262.738281 C 172.886719 262.867188 172.515625 262.863281 172.175781 262.863281 C 169.480469 262.863281 166.789062 262.835938 164.09375 262.832031 C 163.089844 262.832031 162.128906 262.753906 161.179688 262.304688 C 160.105469 261.796875 159.554688 261.148438 159.660156 260.136719 C 159.777344 259.039062 160.546875 258.175781 161.621094 258.023438 C 162.445312 257.90625 163.269531 257.835938 164.097656 257.8125 C 166.878906 257.746094 169.011719 256.273438 170.804688 254.402344 C 171.433594 253.746094 171.566406 252.421875 171.574219 251.398438 C 171.609375 247.050781 172.558594 242.828125 173.160156 238.558594 C 173.355469 237.257812 173.460938 235.953125 173.476562 234.636719 C 173.507812 229.421875 173.183594 224.1875 173.742188 219 C 174.433594 212.550781 174.179688 206.097656 174.375 199.648438 C 174.503906 195.460938 175.40625 191.363281 176.515625 187.320312 C 176.707031 186.609375 176.929688 185.929688 176.320312 185.289062 C 174.339844 183.207031 174.792969 181.386719 176.648438 179.140625 C 176.976562 178.746094 177.398438 178.425781 177.730469 178.027344 C 178.183594 177.488281 178.40625 176.890625 178.351562 176.128906 C 178.285156 175.214844 177.699219 175.085938 177.015625 174.84375 C 175.636719 174.347656 174.871094 173.035156 175.03125 171.550781 C 175.132812 170.585938 175.132812 169.621094 175.023438 168.660156 C 174.914062 167.671875 174.855469 166.734375 173.777344 166.242188 C 173.402344 166.070312 173.316406 165.574219 173.144531 165.195312 C 172.554688 163.910156 172.097656 162.578125 171.40625 161.328125 C 170.269531 159.261719 168.320312 158.042969 166.707031 156.464844 C 163.507812 153.339844 161.6875 149.539062 162.109375 144.972656 C 162.21875 143.78125 162.367188 142.8125 161.4375 141.886719 C 160.929688 141.378906 161.382812 141.039062 161.929688 140.878906 C 163.890625 140.316406 163.890625 140.316406 162.683594 138.6875 C 162.3125 138.191406 161.9375 137.695312 161.574219 137.1875 C 161.210938 136.683594 160.84375 136.332031 160.109375 136.25 C 158.964844 136.128906 156.984375 133.492188 157.042969 132.316406 C 157.074219 131.671875 156.847656 131.5625 156.328125 131.757812 C 153.550781 132.808594 150.773438 133.863281 148 134.921875 C 147.433594 135.136719 147.160156 135.613281 146.925781 136.125 C 146.214844 137.660156 145.597656 139.242188 144.648438 140.65625 C 143.757812 141.980469 142.660156 142.152344 141.433594 141.113281 C 140.160156 140.042969 139.847656 138.644531 140.234375 137.082031 C 140.605469 135.578125 141.488281 134.554688 143.113281 134.359375 C 143.757812 134.277344 144.414062 134.164062 145.066406 134.164062 C 146.816406 134.160156 148.339844 133.390625 149.917969 132.808594 C 151.730469 132.140625 153.515625 131.386719 155.339844 130.746094 C 156.15625 130.457031 156.308594 130.070312 156.035156 129.277344 C 155.699219 128.300781 155.417969 127.292969 155.441406 126.242188 C 155.496094 123.980469 156.421875 122.183594 158.316406 120.921875 C 158.664062 120.6875 159 120.457031 159.242188 120.109375 C 159.402344 119.875 159.628906 119.648438 159.910156 119.660156 C 161.65625 119.71875 163.367188 119.125 165.152344 119.503906 C 167.398438 119.980469 168.550781 121.617188 169.632812 123.359375 C 170.449219 124.675781 170.425781 124.714844 171.914062 124.175781 C 176.789062 122.421875 181.691406 120.738281 186.503906 118.835938 C 188.066406 118.214844 189.601562 117.523438 191.199219 116.988281 C 191.648438 116.839844 191.816406 116.714844 191.484375 116.207031 C 190.863281 115.25 191 115 192.144531 114.699219 C 192.496094 114.605469 192.6875 114.441406 192.738281 114.089844 C 192.820312 113.554688 193.09375 113.195312 193.65625 113.121094 C 194.160156 113.054688 194.539062 113.253906 194.773438 113.695312 C 195.097656 114.304688 195.378906 114.277344 195.839844 113.773438 C 196.5 113.050781 197.339844 112.933594 198.164062 113.503906 C 198.578125 113.789062 198.933594 113.746094 199.40625 113.6875 C 200.5625 113.550781 201.785156 113.152344 202.828125 114.082031 C 203.179688 114.394531 203.601562 114.300781 204.015625 114.296875 C 205.609375 114.28125 206.242188 115.007812 205.890625 116.558594 C 205.765625 117.097656 206.019531 117.371094 206.335938 117.609375 C 207.417969 118.421875 207.695312 119.492188 207.582031 120.792969 C 207.3125 123.8125 207.988281 126.773438 208.265625 129.761719 C 208.714844 134.640625 208.085938 139.410156 206.851562 144.121094 C 206.4375 145.691406 205.285156 146.355469 203.8125 146.515625 C 201.480469 146.765625 199.140625 146.933594 196.804688 147.140625 C 196.082031 147.207031 195.363281 147.300781 194.640625 147.351562 C 193.773438 147.410156 193.722656 147.839844 194.144531 148.441406 C 196.328125 151.558594 197.980469 154.984375 199.964844 158.21875 C 201.589844 160.867188 202.265625 163.90625 203.484375 166.722656 C 203.75 167.335938 203.609375 167.921875 203.199219 168.472656 C 202.519531 169.378906 202.542969 170.089844 203.351562 170.898438 C 203.9375 171.492188 204.328125 172.136719 204.433594 172.960938 C 204.503906 173.519531 204.976562 173.828125 205.238281 174.265625 C 207.417969 177.886719 208.226562 181.917969 208.5 186.039062 C 208.613281 187.761719 208.070312 189.519531 207.90625 191.269531 C 207.523438 195.292969 207.25 199.324219 207.148438 203.363281 C 207.089844 205.582031 206.945312 207.78125 206.4375 209.941406 C 206.230469 210.820312 206.410156 211.515625 207.097656 212.070312 C 207.964844 212.769531 208.414062 213.636719 208.367188 214.765625 C 208.335938 215.519531 208.667969 216.160156 209.292969 216.519531 C 212.851562 218.566406 214.757812 221.996094 216.757812 225.351562 C 218.296875 227.933594 219.855469 230.5 221.40625 233.074219 C 221.695312 233.558594 222.035156 234.035156 222.542969 234.253906 C 224.410156 235.0625 225.851562 236.496094 227.539062 237.558594 C 229.304688 238.675781 231.210938 239.410156 233.269531 239.753906 C 234.554688 239.972656 235.039062 240.65625 235.011719 241.925781 C 234.996094 242.84375 235.09375 243.699219 234.019531 244.089844 C 233.972656 244.105469 233.949219 244.203125 233.914062 244.261719 C 233.15625 245.496094 233.238281 247.019531 232.128906 248.230469 C 231.136719 249.316406 231.480469 251.132812 231.171875 252.609375 C 230.84375 254.183594 230.816406 255.882812 229.578125 257.152344 C 229.296875 257.441406 229.136719 257.851562 229.089844 258.28125 C 229.070312 258.480469 229.0625 258.785156 228.941406 258.859375 C 227.757812 259.546875 227.378906 260.957031 226.433594 261.738281 C 225.796875 262.261719 224.824219 262.757812 223.851562 262.847656 C 222.945312 262.933594 222.042969 262.894531 221.246094 262.386719 C 220.554688 261.941406 220.363281 261.261719 220.472656 260.488281 C 220.597656 259.570312 221.015625 258.777344 221.640625 258.105469 C 221.960938 257.761719 222.117188 257.429688 222.105469 256.917969 C 222.054688 254.042969 221.292969 251.273438 220.914062 248.445312 C 220.863281 248.082031 220.914062 247.601562 220.519531 247.4375 C 220.09375 247.253906 219.855469 247.695312 219.589844 247.941406 C 218.523438 248.929688 217.640625 248.855469 216.683594 247.777344 C 211.425781 241.859375 206.75 235.480469 202 229.160156 C 200.464844 227.117188 199.019531 224.992188 197.34375 223.070312 C 195.167969 220.5625 194.019531 217.632812 193.171875 214.496094 C 192.328125 211.363281 191.335938 208.289062 190.488281 205.089844 Z M 187.730469 134.445312 C 188.164062 134.511719 188.554688 134.410156 188.894531 134.128906 C 192.535156 131.230469 196.367188 128.550781 199.132812 124.695312 C 200.929688 122.191406 200.796875 122.613281 198.210938 121.976562 C 196.847656 121.640625 195.640625 121.285156 194.757812 119.996094 C 194.191406 119.175781 193.433594 118.1875 192.015625 118.6875 C 185.566406 120.945312 179.101562 123.164062 172.636719 125.382812 C 172.195312 125.535156 171.929688 125.6875 172.296875 126.164062 C 172.761719 126.769531 172.796875 127.503906 172.953125 128.214844 C 173.179688 129.242188 172.804688 130.292969 172.953125 131.25 C 173.152344 132.550781 173.746094 133.816406 174.460938 134.96875 C 174.894531 135.664062 175.457031 135.878906 176.207031 135.378906 C 177.003906 134.84375 177.910156 134.636719 178.863281 134.660156 C 179.910156 134.691406 180.925781 134.53125 181.910156 134.179688 C 182.734375 133.882812 183.542969 133.90625 184.253906 134.496094 C 184.515625 134.707031 184.78125 134.851562 185.105469 134.675781 C 185.945312 134.222656 186.832031 134.257812 187.730469 134.445312 Z M 187.730469 134.445312 "/></g><g clip-rule="nonzero" clip-path="url(#165568dd4f)"><g clip-rule="nonzero" clip-path="url(#6105ed10ca)"><path style=" stroke:none;fill-rule:nonzero;fill:#ffffff;fill-opacity:1;" d="M 102.554688 183.015625 L 272.578125 183.015625 L 272.578125 293.769531 L 102.554688 293.769531 Z M 102.554688 183.015625 "/></g></g><g clip-rule="nonzero" clip-path="url(#bc580004c3)"><g clip-rule="nonzero" clip-path="url(#cf99b8c7fe)"><path style=" stroke:none;fill-rule:nonzero;fill:#000000;fill-opacity:1;" d="M 95.320312 188.929688 L 279.464844 188.929688 L 279.464844 320.242188 L 95.320312 320.242188 Z M 95.320312 188.929688 "/></g></g><g clip-rule="nonzero" clip-path="url(#50cb13c5ef)"><g clip-rule="nonzero" clip-path="url(#a8dc6fca0f)"><path style=" stroke:none;fill-rule:nonzero;fill:#ffffff;fill-opacity:1;" d="M 80.070312 199.207031 L 294.738281 199.207031 L 294.738281 326.714844 L 80.070312 326.714844 Z M 80.070312 199.207031 "/></g></g><g clip-rule="nonzero" clip-path="url(#5d115bcba1)"><g clip-rule="nonzero" clip-path="url(#9e3307845b)"><path style="fill:none;stroke-width:10;stroke-linecap:butt;stroke-linejoin:miter;stroke:#000000;stroke-opacity:1;stroke-miterlimit:4;" d="M 137.726026 -0.000259589 C 61.663401 -0.000259589 -0.000537712 61.663679 -0.000537712 137.726304 C -0.000537712 213.788929 61.663401 275.452868 137.726026 275.452868 C 213.788651 275.452868 275.45259 213.788929 275.45259 137.726304 C 275.45259 61.663679 213.788651 -0.000259589 137.726026 -0.000259589 Z M 137.726026 -0.000259589 " transform="matrix(0.748766,0,0,0.748766,84.199621,81.910351)"/></g></g><g clip-rule="nonzero" clip-path="url(#e37bd2dff6)"><g clip-rule="nonzero" clip-path="url(#5dcffdc54a)"><path style=" stroke:none;fill-rule:nonzero;fill:#000000;fill-opacity:1;" d="M 166.917969 209.746094 L 208.152344 209.746094 L 208.152344 250.980469 L 166.917969 250.980469 Z M 166.917969 209.746094 "/></g></g><path style=" stroke:none;fill-rule:nonzero;fill:#ffffff;fill-opacity:1;" d="M 105.886719 112.042969 C 107.089844 110.480469 108.335938 108.957031 109.628906 107.46875 C 110.917969 105.980469 112.253906 104.53125 113.625 103.117188 C 115 101.707031 116.414062 100.332031 117.867188 99.003906 C 119.320312 97.671875 120.8125 96.382812 122.335938 95.136719 C 123.863281 93.890625 125.425781 92.691406 127.023438 91.535156 C 128.617188 90.378906 130.246094 89.269531 131.90625 88.207031 C 133.5625 87.144531 135.253906 86.132812 136.96875 85.164062 C 138.6875 84.199219 140.433594 83.285156 142.203125 82.417969 C 143.972656 81.554688 145.765625 80.738281 147.582031 79.976562 C 149.398438 79.214844 151.238281 78.503906 153.09375 77.847656 C 154.953125 77.191406 156.828125 76.585938 158.71875 76.035156 C 160.613281 75.488281 162.519531 74.992188 164.4375 74.550781 C 166.359375 74.113281 168.292969 73.726562 170.234375 73.398438 C 172.175781 73.070312 174.128906 72.796875 176.085938 72.578125 C 178.042969 72.359375 180.007812 72.199219 181.976562 72.09375 C 183.941406 71.988281 185.914062 71.941406 187.882812 71.949219 C 189.851562 71.957031 191.820312 72.023438 193.789062 72.144531 C 195.753906 72.265625 197.71875 72.441406 199.671875 72.675781 C 201.628906 72.910156 203.578125 73.199219 205.519531 73.542969 C 207.457031 73.890625 209.386719 74.292969 211.304688 74.746094 C 213.222656 75.203125 215.125 75.714844 217.011719 76.28125 C 218.898438 76.84375 220.769531 77.464844 222.621094 78.136719 C 224.472656 78.808594 226.304688 79.535156 228.113281 80.3125 C 229.925781 81.089844 231.710938 81.917969 233.472656 82.800781 C 235.238281 83.679688 236.972656 84.609375 238.683594 85.589844 C 240.394531 86.570312 242.074219 87.597656 243.722656 88.675781 C 245.375 89.75 246.992188 90.875 248.578125 92.042969 C 250.164062 93.210938 251.714844 94.425781 253.234375 95.683594 C 254.75 96.941406 256.226562 98.242188 257.671875 99.585938 C 259.113281 100.929688 260.515625 102.3125 261.875 103.734375 C 263.238281 105.160156 264.558594 106.621094 265.839844 108.121094 C 267.117188 109.617188 268.351562 111.152344 269.542969 112.722656 L 246.160156 130.453125 C 245.308594 129.328125 244.425781 128.230469 243.511719 127.160156 C 242.597656 126.085938 241.652344 125.042969 240.679688 124.023438 C 239.707031 123.003906 238.703125 122.015625 237.671875 121.054688 C 236.640625 120.09375 235.582031 119.164062 234.496094 118.265625 C 233.414062 117.363281 232.304688 116.496094 231.167969 115.660156 C 230.035156 114.824219 228.878906 114.019531 227.695312 113.25 C 226.515625 112.480469 225.316406 111.746094 224.09375 111.046875 C 222.871094 110.34375 221.628906 109.679688 220.367188 109.050781 C 219.105469 108.421875 217.828125 107.828125 216.535156 107.269531 C 215.238281 106.714844 213.929688 106.195312 212.605469 105.714844 C 211.28125 105.234375 209.941406 104.792969 208.59375 104.386719 C 207.242188 103.984375 205.882812 103.617188 204.511719 103.292969 C 203.140625 102.964844 201.761719 102.679688 200.375 102.429688 C 198.984375 102.183594 197.59375 101.976562 196.191406 101.808594 C 194.792969 101.644531 193.390625 101.515625 191.984375 101.429688 C 190.578125 101.34375 189.167969 101.296875 187.761719 101.289062 C 186.351562 101.285156 184.941406 101.320312 183.535156 101.394531 C 182.128906 101.46875 180.722656 101.585938 179.324219 101.738281 C 177.921875 101.894531 176.527344 102.089844 175.140625 102.324219 C 173.75 102.5625 172.367188 102.835938 170.992188 103.152344 C 169.621094 103.464844 168.257812 103.820312 166.902344 104.214844 C 165.550781 104.605469 164.210938 105.039062 162.878906 105.507812 C 161.550781 105.976562 160.238281 106.484375 158.9375 107.03125 C 157.640625 107.578125 156.355469 108.160156 155.089844 108.777344 C 153.824219 109.398438 152.578125 110.050781 151.347656 110.742188 C 150.121094 111.433594 148.914062 112.160156 147.726562 112.917969 C 146.539062 113.679688 145.375 114.472656 144.234375 115.296875 C 143.09375 116.125 141.976562 116.984375 140.882812 117.875 C 139.792969 118.765625 138.726562 119.6875 137.6875 120.636719 C 136.648438 121.589844 135.636719 122.570312 134.652344 123.582031 C 133.671875 124.589844 132.71875 125.628906 131.792969 126.691406 C 130.871094 127.757812 129.980469 128.847656 129.117188 129.964844 Z M 105.886719 112.042969 "/><g style="fill:#000000;fill-opacity:1;"><g transform="translate(125.412522, 117.342089)"><path style="stroke:none" d="M 9.578125 -8.5625 L 3.4375 -14.421875 L 3.359375 -14.359375 L 6.765625 -6.171875 L 5.3125 -4.875 L -2.4375 -9.171875 L -2.515625 -9.109375 L 2.625 -2.359375 L 0.203125 -0.1875 L -8.34375 -11.6875 L -5.78125 -13.984375 L 2.078125 -9.953125 L -1.046875 -18.21875 L 1.53125 -20.515625 L 12 -10.734375 Z M 9.578125 -8.5625 "/></g></g><g style="fill:#000000;fill-opacity:1;"><g transform="translate(142.065476, 103.437415)"><path style="stroke:none" d="M -2.96875 -6.53125 C -3.925781 -8.363281 -4.109375 -10.238281 -3.515625 -12.15625 C -2.929688 -14.070312 -1.757812 -15.488281 0 -16.40625 C 1.769531 -17.332031 3.601562 -17.484375 5.5 -16.859375 C 7.40625 -16.242188 8.835938 -15.019531 9.796875 -13.1875 C 10.765625 -11.332031 10.96875 -9.453125 10.40625 -7.546875 C 9.851562 -5.648438 8.671875 -4.226562 6.859375 -3.28125 C 5.015625 -2.3125 3.160156 -2.140625 1.296875 -2.765625 C -0.566406 -3.398438 -1.988281 -4.65625 -2.96875 -6.53125 Z M 0.15625 -8.15625 C 0.5 -7.488281 0.914062 -6.929688 1.40625 -6.484375 C 1.90625 -6.046875 2.507812 -5.769531 3.21875 -5.65625 C 3.925781 -5.550781 4.648438 -5.691406 5.390625 -6.078125 C 6.472656 -6.640625 7.09375 -7.429688 7.25 -8.453125 C 7.40625 -9.484375 7.210938 -10.519531 6.671875 -11.5625 C 6.128906 -12.59375 5.390625 -13.332031 4.453125 -13.78125 C 3.515625 -14.226562 2.515625 -14.175781 1.453125 -13.625 C 0.410156 -13.082031 -0.195312 -12.289062 -0.375 -11.25 C -0.5625 -10.21875 -0.382812 -9.1875 0.15625 -8.15625 Z M 0.15625 -8.15625 "/></g></g><g style="fill:#000000;fill-opacity:1;"><g transform="translate(160.580355, 94.545781)"><path style="stroke:none" d="M 2.03125 -9.625 L 4.171875 -1.03125 L 1 -0.25 L -2.453125 -14.109375 L 0.71875 -14.890625 L 8.359375 -7.671875 L 8.390625 -7.6875 L 6.25 -16.28125 L 9.421875 -17.0625 L 12.875 -3.203125 L 9.703125 -2.421875 L 2.0625 -9.640625 Z M 2.03125 -9.625 "/></g></g><g style="fill:#000000;fill-opacity:1;"><g transform="translate(179.900001, 90.535429)"><path style="stroke:none" d="M -0.25 -11.421875 L -0.359375 -14.265625 L 9.6875 -14.625 L 9.796875 -11.78125 L 6.390625 -11.65625 L 6.78125 -0.234375 L 3.53125 -0.125 L 3.140625 -11.546875 Z M -0.25 -11.421875 "/></g></g><g style="fill:#000000;fill-opacity:1;"><g transform="translate(195.7067, 90.428489)"><path style="stroke:none" d="M 3.34375 -13.921875 L 8.390625 -13.09375 C 9.742188 -12.863281 10.785156 -12.316406 11.515625 -11.453125 C 12.253906 -10.585938 12.515625 -9.484375 12.296875 -8.140625 C 12.117188 -7.109375 11.710938 -6.285156 11.078125 -5.671875 C 10.453125 -5.066406 9.671875 -4.691406 8.734375 -4.546875 L 12.625 2.09375 L 8.546875 1.40625 L 5.15625 -4.859375 L 4.234375 0.703125 L 1.015625 0.171875 Z M 5.53125 -7.140625 L 5.90625 -7.078125 C 6.207031 -7.023438 6.457031 -6.988281 6.65625 -6.96875 C 6.863281 -6.945312 7.101562 -6.945312 7.375 -6.96875 C 7.65625 -7 7.882812 -7.0625 8.0625 -7.15625 C 8.238281 -7.257812 8.40625 -7.421875 8.5625 -7.640625 C 8.71875 -7.859375 8.820312 -8.132812 8.875 -8.46875 C 8.9375 -8.8125 8.929688 -9.113281 8.859375 -9.375 C 8.785156 -9.632812 8.675781 -9.835938 8.53125 -9.984375 C 8.382812 -10.140625 8.1875 -10.273438 7.9375 -10.390625 C 7.695312 -10.503906 7.472656 -10.582031 7.265625 -10.625 C 7.066406 -10.664062 6.816406 -10.710938 6.515625 -10.765625 L 6.140625 -10.828125 Z M 5.53125 -7.140625 "/></g></g><g style="fill:#000000;fill-opacity:1;"><g transform="translate(213.222479, 93.993027)"><path style="stroke:none" d="M 13.65625 -10.109375 L 12.640625 -7.4375 L 8.046875 -9.171875 L 7.046875 -6.53125 L 11.453125 -4.875 L 10.453125 -2.1875 L 6.046875 -3.84375 L 5.03125 -1.15625 L 9.625 0.578125 L 8.609375 3.25 L 0.96875 0.359375 L 6.015625 -13 Z M 13.65625 -10.109375 "/></g></g><g style="fill:#000000;fill-opacity:1;"><g transform="translate(227.603235, 99.827488)"><path style="stroke:none" d="M 14.65625 -7.625 L 11.875 7.53125 L 8.921875 5.65625 L 9.5625 2.65625 L 4.96875 -0.25 L 2.546875 1.609375 L -0.40625 -0.265625 L 12.109375 -9.234375 Z M 10.15625 -0.34375 L 11.015625 -4.703125 L 11 -4.71875 L 7.4375 -2.0625 Z M 10.15625 -0.34375 "/></g></g><g style="fill:#000000;fill-opacity:1;"><g transform="translate(243.267342, 110.63226)"><path style="stroke:none" d="M 13 -7.296875 L 5.078125 0.921875 L 8.609375 4.328125 L 6.625 6.390625 L 0.75 0.71875 L 10.65625 -9.5625 Z M 13 -7.296875 "/></g></g><path style=" stroke:none;fill-rule:nonzero;fill:#ffffff;fill-opacity:1;" d="M 274.011719 264.585938 C 272.554688 265.910156 271.0625 267.203125 269.546875 268.457031 C 268.027344 269.714844 266.480469 270.9375 264.902344 272.121094 C 263.328125 273.308594 261.726562 274.457031 260.097656 275.570312 C 258.472656 276.683594 256.820312 277.757812 255.140625 278.792969 C 253.464844 279.828125 251.765625 280.828125 250.039062 281.785156 C 248.316406 282.742188 246.574219 283.660156 244.808594 284.539062 C 243.042969 285.417969 241.257812 286.253906 239.453125 287.050781 C 237.652344 287.847656 235.832031 288.601562 233.992188 289.316406 C 232.152344 290.027344 230.300781 290.699219 228.429688 291.324219 C 226.5625 291.953125 224.679688 292.535156 222.78125 293.078125 C 220.886719 293.617188 218.980469 294.117188 217.0625 294.570312 C 215.140625 295.023438 213.214844 295.433594 211.277344 295.796875 C 209.339844 296.164062 207.394531 296.484375 205.441406 296.757812 C 203.488281 297.035156 201.53125 297.265625 199.570312 297.449219 C 197.605469 297.636719 195.640625 297.777344 193.671875 297.871094 C 191.699219 297.96875 189.730469 298.015625 187.757812 298.023438 C 185.789062 298.027344 183.816406 297.988281 181.847656 297.902344 C 179.878906 297.816406 177.910156 297.683594 175.945312 297.507812 C 173.984375 297.332031 172.023438 297.113281 170.070312 296.847656 C 168.117188 296.582031 166.171875 296.269531 164.230469 295.914062 C 162.292969 295.558594 160.359375 295.160156 158.441406 294.714844 C 156.519531 294.273438 154.609375 293.785156 152.710938 293.253906 C 150.8125 292.722656 148.925781 292.148438 147.054688 291.527344 C 145.183594 290.910156 143.324219 290.25 141.484375 289.546875 C 139.640625 288.84375 137.816406 288.097656 136.007812 287.308594 C 134.203125 286.523438 132.414062 285.695312 130.644531 284.824219 C 128.875 283.957031 127.125 283.046875 125.398438 282.097656 C 123.667969 281.148438 121.964844 280.15625 120.28125 279.128906 C 118.597656 278.101562 116.941406 277.035156 115.308594 275.929688 C 113.675781 274.828125 112.066406 273.6875 110.484375 272.507812 C 108.90625 271.332031 107.351562 270.117188 105.824219 268.867188 C 104.300781 267.617188 102.804688 266.335938 101.339844 265.015625 L 120.953125 243.191406 C 122.085938 244.210938 123.242188 245.203125 124.417969 246.167969 C 125.597656 247.132812 126.796875 248.066406 128.015625 248.976562 C 129.238281 249.886719 130.480469 250.769531 131.738281 251.621094 C 133 252.472656 134.28125 253.296875 135.582031 254.089844 C 136.878906 254.882812 138.195312 255.648438 139.53125 256.382812 C 140.863281 257.113281 142.214844 257.816406 143.582031 258.488281 C 144.949219 259.160156 146.328125 259.800781 147.726562 260.40625 C 149.121094 261.015625 150.53125 261.589844 151.953125 262.132812 C 153.375 262.675781 154.808594 263.1875 156.253906 263.664062 C 157.699219 264.140625 159.15625 264.585938 160.621094 264.996094 C 162.089844 265.40625 163.5625 265.785156 165.046875 266.125 C 166.53125 266.46875 168.019531 266.777344 169.519531 267.050781 C 171.015625 267.328125 172.519531 267.566406 174.027344 267.769531 C 175.535156 267.976562 177.046875 268.148438 178.5625 268.28125 C 180.082031 268.417969 181.597656 268.519531 183.121094 268.585938 C 184.640625 268.652344 186.164062 268.683594 187.6875 268.679688 C 189.207031 268.675781 190.730469 268.636719 192.25 268.5625 C 193.769531 268.488281 195.289062 268.382812 196.804688 268.238281 C 198.320312 268.09375 199.832031 267.914062 201.339844 267.703125 C 202.847656 267.492188 204.347656 267.242188 205.84375 266.960938 C 207.339844 266.679688 208.832031 266.363281 210.3125 266.011719 C 211.792969 265.664062 213.265625 265.277344 214.730469 264.863281 C 216.195312 264.445312 217.648438 263.992188 219.089844 263.507812 C 220.535156 263.023438 221.964844 262.507812 223.386719 261.957031 C 224.804688 261.40625 226.210938 260.824219 227.605469 260.207031 C 228.996094 259.59375 230.375 258.945312 231.738281 258.269531 C 233.101562 257.589844 234.449219 256.882812 235.777344 256.140625 C 237.109375 255.402344 238.421875 254.632812 239.71875 253.832031 C 241.011719 253.03125 242.289062 252.199219 243.546875 251.34375 C 244.800781 250.484375 246.039062 249.597656 247.253906 248.679688 C 248.472656 247.765625 249.667969 246.820312 250.839844 245.851562 C 252.011719 244.878906 253.164062 243.882812 254.289062 242.859375 Z M 274.011719 264.585938 "/><g style="fill:#000000;fill-opacity:1;"><g transform="translate(114.94786, 262.685179)"><path style="stroke:none" d="M 16.046875 1.21875 L 14.296875 3.78125 C 13.046875 4.976562 11.65625 5.585938 10.125 5.609375 C 8.59375 5.628906 7.195312 5.210938 5.9375 4.359375 C 4.34375 3.273438 3.390625 1.753906 3.078125 -0.203125 C 2.765625 -2.160156 3.179688 -3.984375 4.328125 -5.671875 C 5.503906 -7.398438 7.039062 -8.484375 8.9375 -8.921875 C 10.84375 -9.359375 12.617188 -9.015625 14.265625 -7.890625 C 16.179688 -6.585938 17.238281 -4.882812 17.4375 -2.78125 L 14.359375 -2.046875 C 14.421875 -3.484375 13.890625 -4.585938 12.765625 -5.359375 C 11.929688 -5.921875 10.972656 -6.039062 9.890625 -5.71875 C 8.816406 -5.40625 7.929688 -4.734375 7.234375 -3.703125 C 6.554688 -2.703125 6.269531 -1.644531 6.375 -0.53125 C 6.476562 0.570312 6.945312 1.40625 7.78125 1.96875 C 8.46875 2.4375 9.203125 2.640625 9.984375 2.578125 C 10.773438 2.515625 11.40625 2.140625 11.875 1.453125 L 9.171875 -0.390625 L 10.59375 -2.484375 Z M 16.046875 1.21875 "/></g></g><g style="fill:#000000;fill-opacity:1;"><g transform="translate(132.872663, 274.139224)"><path style="stroke:none" d="M 3.234375 -6.390625 C 4.054688 -8.285156 5.398438 -9.601562 7.265625 -10.34375 C 9.140625 -11.09375 10.984375 -11.070312 12.796875 -10.28125 C 14.628906 -9.476562 15.894531 -8.140625 16.59375 -6.265625 C 17.300781 -4.398438 17.238281 -2.515625 16.40625 -0.609375 C 15.5625 1.304688 14.226562 2.640625 12.40625 3.390625 C 10.582031 4.148438 8.726562 4.117188 6.84375 3.296875 C 4.9375 2.460938 3.644531 1.125 2.96875 -0.71875 C 2.289062 -2.570312 2.378906 -4.460938 3.234375 -6.390625 Z M 6.453125 -4.984375 C 6.148438 -4.304688 5.976562 -3.632812 5.9375 -2.96875 C 5.90625 -2.3125 6.066406 -1.664062 6.421875 -1.03125 C 6.785156 -0.40625 7.347656 0.0703125 8.109375 0.40625 C 9.222656 0.894531 10.226562 0.878906 11.125 0.359375 C 12.03125 -0.160156 12.71875 -0.957031 13.1875 -2.03125 C 13.65625 -3.101562 13.769531 -4.144531 13.53125 -5.15625 C 13.289062 -6.175781 12.625 -6.925781 11.53125 -7.40625 C 10.457031 -7.875 9.457031 -7.851562 8.53125 -7.34375 C 7.613281 -6.84375 6.921875 -6.054688 6.453125 -4.984375 Z M 6.453125 -4.984375 "/></g></g><g style="fill:#000000;fill-opacity:1;"><g transform="translate(153.325311, 282.255761)"><path style="stroke:none" d="M 7.6875 -12.78125 L 4.859375 -1.703125 L 9.625 -0.484375 L 8.921875 2.28125 L 1 0.25 L 4.53125 -13.59375 Z M 7.6875 -12.78125 "/></g></g><g style="fill:#000000;fill-opacity:1;"><g transform="translate(169.443884, 285.879448)"><path style="stroke:none" d="M 10.796875 -13.1875 L 10.484375 -10.34375 L 5.515625 -10.890625 L 5.203125 -8.078125 L 9.8125 -7.578125 L 9.5 -4.734375 L 4.890625 -5.234375 L 4.265625 0.46875 L 1.03125 0.109375 L 2.59375 -14.09375 Z M 10.796875 -13.1875 "/></g></g><g style="fill:#000000;fill-opacity:1;"><g transform="translate(185.857926, 287.140474)"><path style="stroke:none" d=""/></g></g><g style="fill:#000000;fill-opacity:1;"><g transform="translate(197.302603, 286.876011)"><path style="stroke:none" d="M 8.15625 -4.109375 C 8.644531 -4.179688 9.109375 -4.328125 9.546875 -4.546875 C 9.984375 -4.765625 10.300781 -4.953125 10.5 -5.109375 L 10.796875 -5.390625 L 12.546875 -2.84375 C 12.515625 -2.789062 12.460938 -2.726562 12.390625 -2.65625 C 12.316406 -2.59375 12.144531 -2.460938 11.875 -2.265625 C 11.613281 -2.078125 11.320312 -1.898438 11 -1.734375 C 10.675781 -1.578125 10.25 -1.414062 9.71875 -1.25 C 9.195312 -1.082031 8.65625 -0.957031 8.09375 -0.875 C 6.769531 -0.6875 5.472656 -0.832031 4.203125 -1.3125 C 2.941406 -1.800781 1.867188 -2.554688 0.984375 -3.578125 C 0.109375 -4.609375 -0.421875 -5.78125 -0.609375 -7.09375 C -0.742188 -8.09375 -0.664062 -9.078125 -0.375 -10.046875 C -0.0820312 -11.023438 0.367188 -11.890625 0.984375 -12.640625 C 1.597656 -13.390625 2.34375 -14.023438 3.21875 -14.546875 C 4.101562 -15.066406 5.039062 -15.398438 6.03125 -15.546875 C 6.9375 -15.671875 7.789062 -15.675781 8.59375 -15.5625 C 9.40625 -15.457031 9.984375 -15.320312 10.328125 -15.15625 L 10.859375 -14.90625 L 9.859375 -11.9375 C 9.773438 -12 9.644531 -12.066406 9.46875 -12.140625 C 9.300781 -12.222656 8.960938 -12.3125 8.453125 -12.40625 C 7.953125 -12.5 7.457031 -12.507812 6.96875 -12.4375 C 6.1875 -12.332031 5.503906 -12.109375 4.921875 -11.765625 C 4.335938 -11.421875 3.894531 -11.015625 3.59375 -10.546875 C 3.289062 -10.085938 3.082031 -9.609375 2.96875 -9.109375 C 2.851562 -8.609375 2.832031 -8.113281 2.90625 -7.625 C 3.0625 -6.550781 3.597656 -5.644531 4.515625 -4.90625 C 5.441406 -4.164062 6.65625 -3.898438 8.15625 -4.109375 Z M 8.15625 -4.109375 "/></g></g><g style="fill:#000000;fill-opacity:1;"><g transform="translate(216.831543, 283.461411)"><path style="stroke:none" d="M -0.03125 -14.921875 L 3.28125 -3.984375 L 7.984375 -5.40625 L 8.8125 -2.671875 L 0.984375 -0.296875 L -3.15625 -13.96875 Z M -0.03125 -14.921875 "/></g></g><g style="fill:#000000;fill-opacity:1;"><g transform="translate(232.577287, 278.263349)"><path style="stroke:none" d="M 4.640625 -18.078125 L 8.625 -9.78125 C 9.382812 -8.195312 9.53125 -6.789062 9.0625 -5.5625 C 8.601562 -4.34375 7.550781 -3.335938 5.90625 -2.546875 C 4.269531 -1.765625 2.828125 -1.570312 1.578125 -1.96875 C 0.335938 -2.375 -0.660156 -3.367188 -1.421875 -4.953125 L -5.40625 -13.25 L -2.46875 -14.65625 L 1.109375 -7.21875 C 1.609375 -6.175781 2.117188 -5.53125 2.640625 -5.28125 C 3.171875 -5.03125 3.804688 -5.082031 4.546875 -5.4375 C 5.285156 -5.789062 5.71875 -6.25 5.84375 -6.8125 C 5.976562 -7.382812 5.796875 -8.191406 5.296875 -9.234375 L 1.71875 -16.671875 Z M 4.640625 -18.078125 "/></g></g><g style="fill:#000000;fill-opacity:1;"><g transform="translate(250.064937, 269.190106)"><path style="stroke:none" d="M -7.328125 -12.3125 L -3.6875 -14.84375 C -2.582031 -15.613281 -1.539062 -15.988281 -0.5625 -15.96875 C 0.414062 -15.957031 1.269531 -15.429688 2 -14.390625 C 2.820312 -13.210938 2.921875 -12.03125 2.296875 -10.84375 C 4.160156 -11.707031 5.675781 -11.300781 6.84375 -9.625 C 7.53125 -8.644531 7.742188 -7.617188 7.484375 -6.546875 C 7.222656 -5.472656 6.492188 -4.519531 5.296875 -3.6875 L 0.84375 -0.59375 Z M -1.4375 -9.578125 L -1.234375 -9.71875 C -0.640625 -10.144531 -0.265625 -10.5625 -0.109375 -10.96875 C 0.0351562 -11.382812 -0.0546875 -11.828125 -0.390625 -12.296875 C -0.941406 -13.097656 -1.8125 -13.082031 -3 -12.25 L -3.203125 -12.109375 Z M 2.09375 -4.515625 L 2.921875 -5.109375 C 4.222656 -6.015625 4.570312 -6.90625 3.96875 -7.78125 C 3.601562 -8.300781 3.175781 -8.5625 2.6875 -8.5625 C 2.207031 -8.5625 1.640625 -8.332031 0.984375 -7.875 L 0.15625 -7.28125 Z M 2.09375 -4.515625 "/></g></g><g clip-rule="nonzero" clip-path="url(#1cd2bd6351)"><g clip-rule="nonzero" clip-path="url(#b9029d53b1)"><path style="fill:none;stroke-width:10;stroke-linecap:butt;stroke-linejoin:miter;stroke:#ffffff;stroke-opacity:1;stroke-miterlimit:4;" d="M 109.357927 0.00144289 C 48.962089 0.00144289 -0.0014555 48.959779 -0.0014555 109.360825 C -0.0014555 169.756662 48.962089 218.720207 109.357927 218.720207 C 169.758972 218.720207 218.717309 169.756662 218.717309 109.360825 C 218.717309 48.959779 169.758972 0.00144289 109.357927 0.00144289 Z M 109.357927 0.00144289 " transform="matrix(0.75,0,0,0.75,105.51281,103.014543)"/></g></g><g clip-rule="nonzero" clip-path="url(#a8bdc5c380)"><g clip-rule="nonzero" clip-path="url(#722d362d77)"><path style="fill:none;stroke-width:10;stroke-linecap:butt;stroke-linejoin:miter;stroke:#000000;stroke-opacity:1;stroke-miterlimit:4;" d="M 113.9466 0.00153505 C 51.0143 0.00153505 -0.00133133 51.017167 -0.00133133 113.944258 C -0.00133133 176.876558 51.0143 227.89219 113.9466 227.89219 C 176.873692 227.89219 227.889323 176.876558 227.889323 113.944258 C 227.889323 51.017167 176.873692 0.00153505 113.9466 0.00153505 Z M 113.9466 0.00153505 " transform="matrix(0.75,0,0,0.75,102.040061,99.541817)"/></g></g><g clip-rule="nonzero" clip-path="url(#6844a38987)"><path style=" stroke:none;fill-rule:nonzero;fill:#000000;fill-opacity:1;" d="M 187.53125 248.988281 C 177.242188 248.988281 168.898438 240.644531 168.898438 230.355469 C 168.898438 220.070312 177.242188 211.722656 187.53125 211.722656 C 197.816406 211.722656 206.164062 220.070312 206.164062 230.355469 C 206.164062 240.644531 197.816406 248.988281 187.53125 248.988281 Z M 187.53125 248.988281 "/></g><g clip-rule="nonzero" clip-path="url(#36688c3e8b)"><path style=" stroke:none;fill-rule:nonzero;fill:#ffffff;fill-opacity:1;" d="M 171.6875 220.546875 C 171.492188 220.863281 171.304688 221.1875 171.121094 221.511719 C 171.414062 221.304688 171.632812 220.949219 171.6875 220.546875 Z M 175.167969 217.910156 C 175.136719 218.222656 174.964844 218.519531 174.714844 218.734375 C 175.105469 218.539062 175.40625 218.125 175.453125 217.671875 C 175.496094 217.195312 175.234375 216.8125 174.84375 216.714844 C 174.734375 216.8125 174.636719 216.910156 174.539062 217.007812 C 174.953125 217.085938 175.222656 217.441406 175.167969 217.910156 Z M 177.15625 215.097656 C 177.167969 215.023438 177.167969 214.949219 177.15625 214.882812 C 177.003906 214.980469 176.863281 215.089844 176.710938 215.1875 C 176.710938 215.242188 176.710938 215.304688 176.710938 215.371094 C 176.667969 215.707031 176.449219 216.023438 176.144531 216.21875 C 176.65625 216.097656 177.101562 215.621094 177.15625 215.097656 Z M 174.867188 219.546875 C 175.039062 219.429688 175.246094 219.34375 175.453125 219.320312 C 176.027344 219.265625 176.4375 219.667969 176.382812 220.242188 C 176.332031 220.730469 175.941406 221.175781 175.472656 221.328125 C 175.503906 221.328125 175.550781 221.328125 175.582031 221.328125 C 176.179688 221.296875 176.699219 220.753906 176.730469 220.113281 C 176.777344 219.484375 176.320312 219.007812 175.734375 219.050781 C 175.386719 219.082031 175.070312 219.277344 174.867188 219.546875 Z M 170.460938 228.371094 C 170.449219 229.011719 170.859375 229.519531 171.402344 229.519531 C 171.933594 229.519531 172.390625 228.988281 172.390625 228.339844 C 172.402344 227.6875 171.957031 227.167969 171.425781 227.1875 C 170.894531 227.210938 170.46875 227.742188 170.460938 228.371094 Z M 170.417969 226.894531 C 170.925781 226.882812 171.371094 226.351562 171.394531 225.710938 C 171.414062 225.070312 171.003906 224.582031 170.492188 224.617188 C 169.980469 224.636719 169.570312 225.167969 169.546875 225.789062 C 169.527344 226.40625 169.90625 226.90625 170.417969 226.894531 Z M 171.882812 223.445312 C 171.859375 223.714844 171.75 223.976562 171.597656 224.183594 C 172.097656 224.105469 172.53125 223.597656 172.566406 222.988281 C 172.597656 222.359375 172.183594 221.882812 171.652344 221.925781 C 171.316406 221.957031 171.003906 222.1875 170.816406 222.511719 C 170.894531 222.480469 170.96875 222.457031 171.046875 222.445312 C 171.554688 222.390625 171.933594 222.835938 171.882812 223.445312 Z M 173.183594 220.480469 C 173.140625 220.863281 172.921875 221.21875 172.640625 221.4375 C 172.761719 221.480469 172.878906 221.5 173.019531 221.5 C 173.574219 221.457031 174.074219 220.914062 174.117188 220.296875 C 174.160156 219.679688 173.746094 219.222656 173.195312 219.265625 C 172.964844 219.289062 172.761719 219.386719 172.574219 219.546875 C 172.976562 219.613281 173.238281 219.984375 173.183594 220.480469 Z M 172.859375 224.484375 C 172.476562 224.507812 172.140625 224.769531 171.957031 225.136719 C 172.066406 225.070312 172.183594 225.027344 172.316406 225.019531 C 172.824219 224.964844 173.207031 225.398438 173.152344 226.003906 C 173.128906 226.320312 172.988281 226.613281 172.804688 226.832031 C 173.355469 226.808594 173.824219 226.265625 173.84375 225.625 C 173.867188 224.964844 173.421875 224.453125 172.859375 224.484375 Z M 172.78125 232.234375 C 173.335938 232.246094 173.800781 231.722656 173.792969 231.0625 C 173.78125 230.402344 173.3125 229.867188 172.761719 229.867188 C 172.195312 229.867188 171.761719 230.390625 171.773438 231.039062 C 171.785156 231.691406 172.226562 232.222656 172.78125 232.234375 Z M 174.539062 234.992188 C 175.125 235.011719 175.59375 234.503906 175.570312 233.839844 C 175.550781 233.179688 175.050781 232.636719 174.464844 232.613281 C 173.878906 232.601562 173.433594 233.125 173.453125 233.765625 C 173.476562 234.425781 173.953125 234.96875 174.539062 234.992188 Z M 172.976562 227.761719 C 173.074219 227.71875 173.183594 227.699219 173.304688 227.699219 C 173.878906 227.6875 174.355469 228.207031 174.34375 228.882812 C 174.34375 229.085938 174.289062 229.28125 174.214844 229.457031 C 174.625 229.292969 174.929688 228.847656 174.941406 228.316406 C 174.953125 227.65625 174.476562 227.125 173.898438 227.132812 C 173.5 227.144531 173.152344 227.40625 172.976562 227.761719 Z M 175.332031 229.878906 C 174.984375 229.878906 174.679688 230.054688 174.496094 230.335938 C 174.507812 230.335938 174.507812 230.335938 174.519531 230.335938 C 175.09375 230.324219 175.570312 230.84375 175.558594 231.519531 C 175.558594 231.8125 175.460938 232.082031 175.300781 232.289062 C 175.320312 232.289062 175.332031 232.289062 175.355469 232.289062 C 175.949219 232.300781 176.4375 231.769531 176.4375 231.09375 C 176.429688 230.421875 175.929688 229.878906 175.332031 229.878906 Z M 178.316406 233.917969 C 178.304688 233.242188 177.773438 232.691406 177.15625 232.679688 C 176.710938 232.667969 176.339844 232.941406 176.167969 233.332031 C 176.265625 233.289062 176.375 233.265625 176.492188 233.265625 C 177.070312 233.253906 177.546875 233.777344 177.535156 234.449219 C 177.535156 234.6875 177.46875 234.902344 177.363281 235.089844 C 177.902344 235.023438 178.328125 234.523438 178.316406 233.917969 Z M 179.976562 232.722656 C 179.367188 232.710938 178.878906 233.1875 178.835938 233.796875 C 179.023438 233.582031 179.292969 233.4375 179.585938 233.429688 C 180.160156 233.417969 180.640625 233.9375 180.628906 234.609375 C 180.628906 234.773438 180.59375 234.925781 180.542969 235.054688 C 180.933594 234.871094 181.191406 234.460938 181.179688 233.972656 C 181.171875 233.285156 180.628906 232.722656 179.976562 232.722656 Z M 173.085938 222.597656 C 173.292969 222.304688 173.597656 222.097656 173.941406 222.078125 C 174.519531 222.042969 174.964844 222.53125 174.929688 223.171875 C 174.917969 223.304688 174.898438 223.421875 174.855469 223.542969 C 174.984375 223.347656 175.070312 223.109375 175.09375 222.847656 C 175.125 222.195312 174.679688 221.707031 174.105469 221.75 C 173.640625 221.785156 173.25 222.132812 173.085938 222.597656 Z M 175.496094 227.90625 C 175.699219 227.65625 175.984375 227.492188 176.308594 227.480469 C 176.90625 227.460938 177.382812 227.980469 177.371094 228.640625 C 177.363281 228.882812 177.296875 229.097656 177.1875 229.292969 C 177.46875 229.066406 177.664062 228.707031 177.664062 228.296875 C 177.664062 227.621094 177.167969 227.078125 176.546875 227.089844 C 176.058594 227.101562 175.648438 227.4375 175.496094 227.90625 Z M 176.480469 225.539062 C 176.503906 224.875 176.015625 224.355469 175.417969 224.378906 C 175.007812 224.386719 174.636719 224.660156 174.453125 225.039062 C 174.636719 224.875 174.867188 224.777344 175.113281 224.769531 C 175.710938 224.746094 176.1875 225.265625 176.179688 225.929688 C 176.179688 226.136719 176.125 226.320312 176.039062 226.492188 C 176.296875 226.265625 176.472656 225.917969 176.480469 225.539062 Z M 177.015625 230.660156 C 177.21875 230.410156 177.511719 230.238281 177.828125 230.226562 C 178.425781 230.207031 178.902344 230.726562 178.890625 231.386719 C 178.878906 231.714844 178.761719 232.007812 178.554688 232.234375 C 178.957031 232.050781 179.238281 231.625 179.226562 231.117188 C 179.226562 230.433594 178.695312 229.878906 178.066406 229.878906 C 177.578125 229.890625 177.175781 230.207031 177.015625 230.660156 Z M 180.726562 230.324219 C 181.355469 230.324219 181.886719 230.878906 181.886719 231.5625 C 181.886719 231.722656 181.855469 231.875 181.800781 232.027344 C 182.015625 231.800781 182.148438 231.496094 182.148438 231.148438 C 182.148438 230.453125 181.59375 229.902344 180.941406 229.902344 C 180.378906 229.902344 179.910156 230.304688 179.792969 230.855469 C 180 230.53125 180.335938 230.324219 180.726562 230.324219 Z M 181.722656 233.851562 C 181.929688 233.484375 182.308594 233.234375 182.742188 233.234375 C 183.40625 233.234375 183.949219 233.796875 183.949219 234.480469 C 183.949219 234.558594 183.9375 234.632812 183.925781 234.707031 C 184.066406 234.511719 184.144531 234.265625 184.144531 233.992188 C 184.132812 233.308594 183.578125 232.746094 182.90625 232.734375 C 182.289062 232.746094 181.777344 233.234375 181.722656 233.851562 Z M 177.480469 240.4375 C 178.089844 240.480469 178.566406 239.992188 178.523438 239.363281 C 178.488281 238.722656 177.949219 238.179688 177.339844 238.148438 C 176.722656 238.117188 176.265625 238.617188 176.308594 239.246094 C 176.351562 239.863281 176.875 240.394531 177.480469 240.4375 Z M 180.25 240.589844 C 180.886719 240.621094 181.386719 240.132812 181.355469 239.484375 C 181.324219 238.84375 180.78125 238.289062 180.128906 238.269531 C 179.488281 238.246094 179 238.746094 179.03125 239.386719 C 179.074219 240.027344 179.609375 240.558594 180.25 240.589844 Z M 184.273438 239.570312 C 184.253906 238.917969 183.699219 238.375 183.027344 238.355469 C 182.363281 238.332031 181.855469 238.855469 181.875 239.496094 C 181.910156 240.132812 182.449219 240.675781 183.113281 240.699219 C 183.773438 240.71875 184.296875 240.222656 184.273438 239.570312 Z M 176.136719 237.746094 C 176.730469 237.78125 177.210938 237.28125 177.175781 236.628906 C 177.144531 235.976562 176.625 235.425781 176.027344 235.402344 C 175.417969 235.382812 174.964844 235.890625 174.996094 236.53125 C 175.027344 237.171875 175.539062 237.714844 176.136719 237.746094 Z M 179.988281 236.726562 C 179.964844 236.066406 179.421875 235.511719 178.78125 235.488281 C 178.144531 235.46875 177.65625 235.988281 177.6875 236.652344 C 177.71875 237.300781 178.242188 237.855469 178.871094 237.878906 C 179.511719 237.898438 180.007812 237.390625 179.988281 236.726562 Z M 185.773438 233.167969 C 186.457031 233.167969 187.03125 233.730469 187.03125 234.425781 C 187.03125 234.535156 187.019531 234.632812 186.996094 234.730469 C 187.128906 234.535156 187.214844 234.296875 187.203125 234.035156 C 187.203125 233.339844 186.628906 232.777344 185.945312 232.777344 C 185.359375 232.777344 184.882812 233.167969 184.75 233.710938 C 184.96875 233.386719 185.335938 233.167969 185.773438 233.167969 Z M 190.859375 239.59375 C 191.066406 239.179688 191.492188 238.898438 191.988281 238.898438 C 192.671875 238.898438 193.226562 239.429688 193.238281 240.089844 C 193.292969 239.949219 193.335938 239.808594 193.335938 239.644531 C 193.347656 238.996094 192.792969 238.453125 192.097656 238.464844 C 191.4375 238.464844 190.894531 238.960938 190.859375 239.59375 Z M 195.113281 238.898438 C 195.691406 238.898438 196.179688 239.277344 196.320312 239.796875 C 196.332031 239.734375 196.339844 239.667969 196.339844 239.613281 C 196.363281 238.960938 195.820312 238.429688 195.136719 238.441406 C 194.453125 238.453125 193.890625 238.996094 193.890625 239.644531 C 193.890625 239.710938 193.890625 239.765625 193.898438 239.832031 C 194.039062 239.289062 194.527344 238.898438 195.113281 238.898438 Z M 197.40625 240.558594 C 197.273438 240.363281 197.199219 240.132812 197.199219 239.894531 C 197.199219 239.222656 197.753906 238.667969 198.445312 238.667969 C 198.683594 238.667969 198.902344 238.734375 199.097656 238.855469 C 198.890625 238.570312 198.542969 238.386719 198.144531 238.398438 C 197.46875 238.410156 196.90625 238.960938 196.894531 239.613281 C 196.882812 240.003906 197.089844 240.351562 197.40625 240.558594 Z M 186.464844 236.660156 C 186.695312 236.359375 187.050781 236.164062 187.453125 236.171875 C 188.136719 236.171875 188.710938 236.738281 188.710938 237.433594 C 188.710938 237.496094 188.710938 237.5625 188.703125 237.617188 C 188.855469 237.410156 188.941406 237.160156 188.941406 236.890625 C 188.941406 236.21875 188.375 235.652344 187.679688 235.652344 C 187.0625 235.640625 186.554688 236.085938 186.464844 236.660156 Z M 190.621094 236.195312 C 191.304688 236.195312 191.871094 236.75 191.882812 237.421875 C 191.957031 237.257812 192.011719 237.085938 192.011719 236.890625 C 192.011719 236.21875 191.449219 235.664062 190.753906 235.664062 C 190.058594 235.664062 189.492188 236.21875 189.503906 236.890625 C 189.699219 236.476562 190.125 236.183594 190.621094 236.195312 Z M 186.25 245.820312 C 186.898438 245.84375 187.410156 245.386719 187.386719 244.800781 C 187.367188 244.214844 186.824219 243.714844 186.164062 243.695312 C 185.5 243.671875 184.992188 244.148438 185.023438 244.734375 C 185.054688 245.332031 185.609375 245.808594 186.25 245.820312 Z M 189.148438 245.886719 C 189.796875 245.898438 190.328125 245.441406 190.328125 244.84375 C 190.328125 244.257812 189.785156 243.757812 189.113281 243.757812 C 188.441406 243.75 187.921875 244.238281 187.929688 244.824219 C 187.953125 245.410156 188.496094 245.875 189.148438 245.886719 Z M 192.054688 245.898438 C 192.707031 245.898438 193.25 245.429688 193.257812 244.84375 C 193.269531 244.257812 192.738281 243.769531 192.066406 243.769531 C 191.394531 243.769531 190.851562 244.269531 190.859375 244.855469 C 190.871094 245.429688 191.402344 245.898438 192.054688 245.898438 Z M 195.027344 243.726562 C 194.367188 243.738281 193.8125 244.238281 193.800781 244.824219 C 193.792969 245.410156 194.3125 245.863281 194.964844 245.84375 C 195.613281 245.832031 196.15625 245.355469 196.191406 244.769531 C 196.210938 244.191406 195.691406 243.714844 195.027344 243.726562 Z M 197.949219 243.652344 C 197.296875 243.671875 196.742188 244.183594 196.710938 244.769531 C 196.6875 245.355469 197.1875 245.800781 197.828125 245.765625 C 197.902344 245.765625 197.96875 245.757812 198.046875 245.746094 C 198.347656 245.539062 198.652344 245.320312 198.945312 245.09375 C 199.011719 244.964844 199.054688 244.832031 199.066406 244.683594 C 199.085938 244.09375 198.597656 243.628906 197.949219 243.652344 Z M 199.585938 244.5625 C 199.964844 244.238281 200.335938 243.898438 200.691406 243.542969 C 200.140625 243.605469 199.664062 244.050781 199.585938 244.5625 Z M 181.996094 243.238281 C 182.636719 243.269531 183.132812 242.804688 183.101562 242.1875 C 183.070312 241.566406 182.515625 241.035156 181.863281 241.015625 C 181.214844 240.992188 180.726562 241.46875 180.769531 242.089844 C 180.8125 242.695312 181.355469 243.207031 181.996094 243.238281 Z M 184.871094 243.359375 C 185.523438 243.378906 186.042969 242.902344 186.019531 242.285156 C 186 241.664062 185.445312 241.132812 184.773438 241.113281 C 184.113281 241.089844 183.589844 241.589844 183.621094 242.207031 C 183.667969 242.824219 184.210938 243.335938 184.871094 243.359375 Z M 188.996094 242.328125 C 188.984375 241.699219 188.429688 241.175781 187.757812 241.164062 C 187.085938 241.15625 186.554688 241.664062 186.5625 242.285156 C 186.585938 242.902344 187.140625 243.410156 187.800781 243.421875 C 188.464844 243.433594 189.003906 242.945312 188.996094 242.328125 Z M 187.269531 239.625 C 187.257812 238.972656 186.695312 238.429688 186.019531 238.421875 C 185.414062 238.410156 184.9375 238.820312 184.839844 239.363281 C 185.042969 239.15625 185.328125 239.039062 185.652344 239.050781 C 186.3125 239.058594 186.867188 239.625 186.890625 240.285156 C 186.890625 240.363281 186.890625 240.425781 186.878906 240.492188 C 187.117188 240.285156 187.28125 239.984375 187.269531 239.625 Z M 187.824219 239.636719 C 187.824219 239.699219 187.832031 239.765625 187.84375 239.832031 C 188.050781 239.625 188.34375 239.496094 188.667969 239.496094 C 189.265625 239.503906 189.765625 239.960938 189.882812 240.535156 C 190.144531 240.320312 190.296875 240.003906 190.296875 239.65625 C 190.296875 239.007812 189.734375 238.464844 189.050781 238.453125 C 188.367188 238.453125 187.8125 238.984375 187.824219 239.636719 Z M 182.894531 236.804688 C 182.875 236.128906 182.320312 235.578125 181.660156 235.566406 C 181.128906 235.554688 180.703125 235.890625 180.550781 236.359375 C 180.726562 236.261719 180.921875 236.207031 181.136719 236.21875 C 181.800781 236.226562 182.351562 236.792969 182.375 237.453125 C 182.375 237.585938 182.363281 237.714844 182.320312 237.835938 C 182.679688 237.640625 182.90625 237.257812 182.894531 236.804688 Z M 183.4375 236.8125 C 183.4375 236.835938 183.4375 236.847656 183.4375 236.867188 C 183.621094 236.738281 183.863281 236.660156 184.113281 236.671875 C 184.761719 236.683594 185.304688 237.226562 185.335938 237.867188 C 185.675781 237.660156 185.890625 237.292969 185.878906 236.855469 C 185.871094 236.183594 185.304688 235.621094 184.621094 235.621094 C 183.960938 235.609375 183.425781 236.152344 183.4375 236.8125 Z M 191.652344 243.097656 C 191.859375 242.902344 191.988281 242.628906 191.988281 242.328125 C 191.988281 241.699219 191.449219 241.1875 190.761719 241.1875 C 190.101562 241.1875 189.582031 241.664062 189.546875 242.261719 C 189.753906 242.023438 190.070312 241.871094 190.417969 241.882812 C 191.078125 241.894531 191.621094 242.445312 191.652344 243.097656 Z M 202.539062 240.917969 C 201.910156 240.949219 201.355469 241.480469 201.324219 242.097656 C 201.3125 242.328125 201.367188 242.542969 201.472656 242.707031 C 201.972656 242.152344 202.429688 241.554688 202.851562 240.949219 C 202.753906 240.917969 202.65625 240.90625 202.539062 240.917969 Z M 195.34375 247.132812 C 195.167969 247.15625 194.996094 247.175781 194.8125 247.199219 C 194.8125 247.1875 194.8125 247.175781 194.8125 247.167969 C 194.832031 246.625 194.324219 246.179688 193.671875 246.191406 C 193.019531 246.199219 192.476562 246.667969 192.476562 247.210938 C 192.476562 247.253906 192.476562 247.296875 192.488281 247.328125 C 192.457031 247.328125 192.425781 247.328125 192.390625 247.328125 C 192.238281 247.328125 192.097656 247.328125 191.945312 247.320312 C 191.957031 247.273438 191.957031 247.242188 191.957031 247.199219 C 191.96875 246.65625 191.4375 246.199219 190.785156 246.199219 C 190.144531 246.199219 189.636719 246.636719 189.613281 247.15625 C 189.429688 247.132812 189.253906 247.113281 189.082031 247.078125 C 189.003906 246.582031 188.496094 246.179688 187.886719 246.167969 C 187.441406 246.15625 187.074219 246.363281 186.890625 246.65625 C 186.519531 246.570312 186.152344 246.472656 185.792969 246.363281 C 185.578125 246.199219 185.316406 246.101562 185.023438 246.09375 C 185 246.09375 184.96875 246.09375 184.945312 246.09375 C 184.566406 245.960938 184.1875 245.820312 183.816406 245.667969 C 184.242188 245.539062 184.535156 245.179688 184.511719 244.726562 C 184.480469 244.140625 183.925781 243.628906 183.277344 243.605469 C 182.625 243.585938 182.148438 244.042969 182.191406 244.628906 C 182.203125 244.757812 182.234375 244.878906 182.289062 244.996094 C 182.082031 244.898438 181.875 244.789062 181.679688 244.683594 C 181.679688 244.648438 181.679688 244.628906 181.679688 244.59375 C 181.636719 244.007812 181.082031 243.5 180.453125 243.464844 C 180.226562 243.457031 180.019531 243.507812 179.847656 243.605469 C 179.574219 243.433594 179.304688 243.25 179.03125 243.054688 C 179.085938 243.066406 179.152344 243.074219 179.21875 243.074219 C 179.835938 243.117188 180.300781 242.664062 180.269531 242.042969 C 180.226562 241.425781 179.683594 240.894531 179.054688 240.863281 C 178.425781 240.828125 177.96875 241.308594 178.023438 241.902344 C 178.035156 242.078125 178.089844 242.238281 178.175781 242.390625 C 177.957031 242.21875 177.742188 242.042969 177.523438 241.859375 C 177.46875 241.253906 176.9375 240.730469 176.351562 240.6875 C 176.308594 240.6875 176.277344 240.6875 176.234375 240.6875 C 176.003906 240.460938 175.777344 240.230469 175.558594 239.992188 C 175.753906 239.808594 175.863281 239.515625 175.84375 239.191406 C 175.796875 238.5625 175.289062 238.019531 174.703125 237.984375 C 174.441406 237.976562 174.214844 238.0625 174.050781 238.214844 C 173.890625 238.007812 173.738281 237.800781 173.585938 237.585938 C 174.136719 237.617188 174.574219 237.128906 174.539062 236.5 C 174.507812 235.859375 174.007812 235.304688 173.445312 235.285156 C 173.011719 235.261719 172.664062 235.554688 172.53125 235.976562 C 172.316406 235.609375 172.109375 235.230469 171.902344 234.851562 C 171.945312 234.859375 172 234.871094 172.042969 234.871094 C 172.585938 234.902344 173.019531 234.40625 173 233.753906 C 172.976562 233.101562 172.511719 232.570312 171.96875 232.550781 C 171.578125 232.539062 171.261719 232.789062 171.121094 233.167969 C 170.980469 232.820312 170.839844 232.472656 170.710938 232.113281 C 171.078125 231.972656 171.347656 231.550781 171.339844 231.03125 C 171.328125 230.390625 170.894531 229.859375 170.382812 229.859375 C 170.253906 229.859375 170.144531 229.890625 170.035156 229.945312 C 169.960938 229.664062 169.894531 229.378906 169.839844 229.097656 C 169.972656 228.902344 170.046875 228.640625 170.058594 228.371094 C 170.070312 227.90625 169.851562 227.503906 169.539062 227.339844 C 169.484375 226.917969 169.441406 226.492188 169.394531 226.058594 C 169.296875 226.449219 169.222656 226.851562 169.15625 227.253906 C 169.039062 227.980469 168.949219 228.71875 168.917969 229.476562 C 168.90625 229.75 168.898438 230.011719 168.898438 230.28125 C 168.898438 230.304688 168.898438 230.324219 168.898438 230.347656 C 168.898438 230.78125 168.90625 231.214844 168.941406 231.636719 C 168.960938 232.015625 169.003906 232.398438 169.050781 232.765625 C 169.125 233.394531 169.246094 234.003906 169.386719 234.609375 C 169.644531 235.738281 170.027344 236.835938 170.480469 237.878906 C 170.621094 238.179688 170.761719 238.484375 170.914062 238.789062 C 171.199219 239.351562 171.511719 239.894531 171.847656 240.417969 C 172.03125 240.699219 172.21875 240.980469 172.414062 241.253906 C 172.988281 242.042969 173.617188 242.78125 174.300781 243.476562 C 174.820312 244.007812 175.375 244.496094 175.960938 244.964844 C 176.210938 245.160156 176.472656 245.355469 176.730469 245.539062 C 177.121094 245.808594 177.511719 246.070312 177.925781 246.320312 C 178.109375 246.429688 178.304688 246.539062 178.488281 246.644531 C 179.085938 246.980469 179.714844 247.273438 180.347656 247.546875 C 181.171875 247.894531 182.015625 248.175781 182.894531 248.402344 C 183.460938 248.546875 184.035156 248.664062 184.621094 248.761719 C 184.871094 248.804688 185.109375 248.828125 185.359375 248.859375 C 186.054688 248.9375 186.757812 248.980469 187.464844 248.980469 C 187.476562 248.980469 187.484375 248.980469 187.496094 248.980469 C 187.703125 248.980469 187.910156 248.980469 188.125 248.96875 C 188.800781 248.945312 189.460938 248.890625 190.113281 248.792969 C 190.523438 248.742188 190.949219 248.664062 191.347656 248.578125 C 191.589844 248.523438 191.828125 248.46875 192.054688 248.414062 C 192.445312 248.316406 192.824219 248.207031 193.207031 248.089844 C 193.703125 247.925781 194.191406 247.753906 194.679688 247.546875 C 194.898438 247.460938 195.113281 247.363281 195.320312 247.265625 C 195.453125 247.199219 195.59375 247.132812 195.722656 247.070312 C 196.222656 246.820312 196.710938 246.558594 197.1875 246.265625 C 197.003906 246.15625 196.777344 246.09375 196.527344 246.101562 C 195.917969 246.136719 195.375 246.589844 195.34375 247.132812 Z M 203.4375 234.949219 C 203.308594 234.761719 203.242188 234.523438 203.253906 234.265625 C 203.277344 233.601562 203.820312 233.039062 204.46875 233.027344 C 204.664062 233.027344 204.847656 233.070312 205.011719 233.15625 C 204.816406 232.875 204.492188 232.691406 204.113281 232.691406 C 203.480469 232.699219 202.941406 233.253906 202.929688 233.925781 C 202.90625 234.371094 203.113281 234.742188 203.4375 234.949219 Z M 205.707031 233.875 C 205.707031 234.003906 205.71875 234.121094 205.75 234.242188 C 205.824219 233.882812 205.890625 233.515625 205.945312 233.144531 C 205.804688 233.339844 205.71875 233.589844 205.707031 233.875 Z M 199.402344 237.933594 C 199.207031 237.726562 199.097656 237.445312 199.109375 237.128906 C 199.121094 236.457031 199.683594 235.902344 200.347656 235.890625 C 200.488281 235.890625 200.628906 235.914062 200.746094 235.957031 C 200.53125 235.730469 200.226562 235.578125 199.878906 235.585938 C 199.21875 235.597656 198.652344 236.164062 198.640625 236.824219 C 198.632812 237.347656 198.945312 237.78125 199.402344 237.933594 Z M 202.191406 237.800781 C 202.058594 237.605469 201.996094 237.378906 201.996094 237.128906 C 202.007812 236.457031 202.570312 235.902344 203.234375 235.890625 C 203.394531 235.890625 203.546875 235.914062 203.6875 235.96875 C 203.492188 235.683594 203.167969 235.5 202.777344 235.511719 C 202.136719 235.535156 201.582031 236.085938 201.5625 236.75 C 201.5625 237.226562 201.8125 237.617188 202.191406 237.800781 Z M 201.800781 238.703125 C 201.863281 238.703125 201.917969 238.703125 201.972656 238.714844 C 201.765625 238.453125 201.453125 238.289062 201.074219 238.300781 C 200.421875 238.324219 199.867188 238.863281 199.847656 239.515625 C 199.824219 240.125 200.257812 240.589844 200.84375 240.632812 C 200.660156 240.4375 200.542969 240.179688 200.5625 239.886719 C 200.59375 239.253906 201.148438 238.734375 201.800781 238.703125 Z M 202.753906 239.167969 C 202.734375 239.246094 202.722656 239.332031 202.722656 239.40625 C 202.710938 239.644531 202.765625 239.851562 202.875 240.035156 C 202.960938 240.179688 203.089844 240.296875 203.242188 240.382812 C 203.296875 240.296875 203.351562 240.199219 203.417969 240.113281 C 203.675781 239.679688 203.925781 239.246094 204.15625 238.789062 C 204.242188 238.625 204.316406 238.464844 204.394531 238.289062 C 204.253906 238.226562 204.089844 238.191406 203.917969 238.203125 C 203.375 238.214844 202.886719 238.636719 202.753906 239.167969 Z M 204.40625 236.652344 C 204.394531 236.988281 204.511719 237.292969 204.71875 237.496094 C 204.707031 237.445312 204.707031 237.378906 204.707031 237.3125 C 204.71875 236.988281 204.882812 236.695312 205.121094 236.476562 C 205.238281 236.128906 205.347656 235.78125 205.457031 235.425781 C 204.894531 235.523438 204.4375 236.042969 204.40625 236.652344 Z M 192.53125 242.328125 C 192.53125 242.566406 192.609375 242.78125 192.738281 242.957031 C 192.902344 242.488281 193.367188 242.140625 193.921875 242.140625 C 194.332031 242.140625 194.703125 242.328125 194.910156 242.621094 C 194.941406 242.523438 194.964844 242.414062 194.964844 242.292969 C 194.972656 241.675781 194.441406 241.164062 193.769531 241.164062 C 193.097656 241.175781 192.542969 241.707031 192.53125 242.328125 Z M 195.515625 242.292969 C 195.507812 242.609375 195.648438 242.890625 195.863281 243.097656 C 195.863281 243.054688 195.851562 243.019531 195.851562 242.976562 C 195.851562 242.347656 196.417969 241.828125 197.089844 241.828125 C 197.414062 241.828125 197.699219 241.9375 197.914062 242.121094 C 197.871094 241.554688 197.382812 241.121094 196.753906 241.132812 C 196.09375 241.144531 195.527344 241.664062 195.515625 242.292969 Z M 200.496094 241.554688 C 200.5625 241.554688 200.628906 241.554688 200.683594 241.566406 C 200.496094 241.242188 200.128906 241.023438 199.695312 241.035156 C 199.042969 241.058594 198.480469 241.589844 198.457031 242.207031 C 198.4375 242.761719 198.835938 243.195312 199.378906 243.261719 C 199.292969 243.109375 199.25 242.921875 199.261719 242.726562 C 199.28125 242.109375 199.835938 241.578125 200.496094 241.554688 Z M 200.496094 241.554688 "/></g><g clip-rule="nonzero" clip-path="url(#556d1ee641)"><g clip-rule="nonzero" clip-path="url(#abb682a34c)"><path style=" stroke:none;fill-rule:nonzero;fill:#000000;fill-opacity:1;" d="M 137.945312 217.335938 L 159.601562 217.335938 L 159.601562 237.941406 L 137.945312 237.941406 Z M 137.945312 217.335938 "/></g></g><g clip-rule="nonzero" clip-path="url(#b37d70a844)"><g clip-rule="nonzero" clip-path="url(#ab3649a255)"><path style=" stroke:none;fill-rule:nonzero;fill:#000000;fill-opacity:1;" d="M 217.152344 217.335938 L 238.804688 217.335938 L 238.804688 237.941406 L 217.152344 237.941406 Z M 217.152344 217.335938 "/></g></g></g></svg>